<svg width="28" height="28" viewBox="0 0 28 28" fill="none" xmlns="http://www.w3.org/2000/svg">
<path d="M16.9965 3.72896C15.6925 2.42491 15.0405 1.77289 14.2302 1.77289C13.42 1.77289 12.768 2.42491 11.4639 3.72896C10.6814 4.51149 9.90597 4.87479 8.79033 4.87479C7.81622 4.87479 6.43032 4.68587 5.66907 5.45351C4.91385 6.21509 5.10193 7.59529 5.10193 8.56319C5.10193 9.67886 4.7386 10.4543 3.95605 11.2369C2.65202 12.5409 2.00001 13.1929 2 14.0031C2.00002 14.8133 2.65204 15.4654 3.95608 16.7694C4.83272 17.646 5.10193 18.2121 5.10193 19.443C5.10193 20.4172 4.91301 21.8031 5.68068 22.5643C6.44225 23.3195 7.82243 23.1314 8.79031 23.1314C9.97839 23.1314 10.5505 23.3638 11.3984 24.2118C12.1204 24.9338 13.0883 26.2334 14.2303 26.2334C15.3722 26.2334 16.3401 24.9338 17.0621 24.2118C17.91 23.3638 18.4821 23.1314 19.6702 23.1314C20.6381 23.1314 22.0182 23.3195 22.7798 22.5643M24.5044 11.2369C25.8085 12.5409 26.4605 13.1929 26.4605 14.0031C26.4605 14.8133 25.8085 15.4654 24.5044 16.7694C23.6278 17.646 23.3586 18.2121 23.3586 19.443C23.3586 20.4172 23.5475 21.8031 22.7798 22.5643M22.7798 22.5643H22.7914" stroke="#A4022D" stroke-width="2.5" stroke-linecap="round" stroke-linejoin="round"/>
<path d="M9.33838 11.9334C9.33838 11.9334 12.0902 11.5571 14.2305 16.4492C14.2305 16.4492 20.4175 4.21894 26.4607 1.77289" stroke="#A4022D" stroke-width="2.5" stroke-linecap="round" stroke-linejoin="round"/>
</svg>
