<svg width="19" height="19" viewBox="0 0 19 19" fill="none" xmlns="http://www.w3.org/2000/svg">
<g clip-path="url(#clip0_247_1861)">
<path d="M2.99078 9.45441C2.24026 8.14574 1.87788 7.07713 1.65937 5.99392C1.3362 4.39187 2.07576 2.82693 3.30092 1.82837C3.81873 1.40634 4.4123 1.55053 4.7185 2.09986L5.40977 3.34001C5.95768 4.32299 6.23164 4.81448 6.1773 5.33555C6.12296 5.85662 5.7535 6.28101 5.01456 7.12979L2.99078 9.45441ZM2.99078 9.45441C4.5099 12.1033 6.89387 14.4885 9.5458 16.0094M9.5458 16.0094C10.8545 16.7599 11.9231 17.1223 13.0063 17.3408C14.6083 17.664 16.1733 16.9244 17.1718 15.6993C17.5939 15.1815 17.4497 14.5879 16.9003 14.2817L15.6602 13.5904C14.6772 13.0425 14.1857 12.7686 13.6647 12.8229C13.1436 12.8772 12.7192 13.2467 11.8704 13.9856L9.5458 16.0094Z" stroke="#808080" stroke-width="1.5" stroke-linejoin="round"/>
</g>
<defs>
<clipPath id="clip0_247_1861">
<rect width="19" height="19" fill="white"/>
</clipPath>
</defs>
</svg>
