<svg width="28" height="28" viewBox="0 0 28 28" fill="none" xmlns="http://www.w3.org/2000/svg">
<path d="M0.215385 12.2779C1.16844 10.9986 2.44019 9.9915 3.90385 9.35691C3.10305 8.62433 2.54234 7.66687 2.29524 6.61008C2.04815 5.55328 2.12621 4.44649 2.51918 3.43482C2.91215 2.42316 3.60169 1.55386 4.49738 0.94092C5.39307 0.327976 6.4531 0 7.53846 0C8.62382 0 9.68385 0.327976 10.5795 0.94092C11.4752 1.55386 12.1648 2.42316 12.5577 3.43482C12.9507 4.44649 13.0288 5.55328 12.7817 6.61008C12.5346 7.66687 11.9739 8.62433 11.1731 9.35691C12.2278 9.81553 13.1868 10.4685 14 11.2818C14.8132 10.4685 15.7722 9.81553 16.8269 9.35691C16.0261 8.62433 15.4654 7.66687 15.2183 6.61008C14.9712 5.55328 15.0493 4.44649 15.4423 3.43482C15.8352 2.42316 16.5248 1.55386 17.4205 0.94092C18.3161 0.327976 19.3762 0 20.4615 0C21.5469 0 22.6069 0.327976 23.5026 0.94092C24.3983 1.55386 25.0879 2.42316 25.4808 3.43482C25.8738 4.44649 25.9518 5.55328 25.7048 6.61008C25.4577 7.66687 24.897 8.62433 24.0962 9.35691C25.5598 9.9915 26.8316 10.9986 27.7846 12.2779C27.8695 12.391 27.9312 12.5198 27.9663 12.6567C28.0014 12.7937 28.0092 12.9363 27.9892 13.0763C27.9692 13.2163 27.9218 13.351 27.8497 13.4727C27.7777 13.5943 27.6824 13.7006 27.5692 13.7855C27.3395 13.9534 27.0532 14.0249 26.7715 13.9846C26.4899 13.9444 26.2351 13.7956 26.0615 13.5701C25.4095 12.7008 24.564 11.9952 23.592 11.5092C22.62 11.0233 21.5483 10.7703 20.4615 10.7703C19.3748 10.7703 18.303 11.0233 17.331 11.5092C16.3591 11.9952 15.5136 12.7008 14.8615 13.5701L14.7808 13.6509H14.7673L14.7 13.7182L14.6596 13.7451C14.6596 13.7487 14.6582 13.7521 14.6557 13.7546C14.6531 13.7571 14.6497 13.7586 14.6462 13.7586L14.6058 13.7855L14.5654 13.8124L14.4981 13.8528H14.4712L14.2423 13.9336H13.7981L13.6904 13.9066H13.65L13.5288 13.8528L13.4885 13.8259C13.4451 13.8037 13.4044 13.7766 13.3673 13.7451H13.3538L13.3135 13.7047H13.2865C13.2596 13.6778 13.2327 13.6643 13.2192 13.6374H13.2058L13.125 13.5432C12.4717 12.6772 11.626 11.9749 10.6547 11.4917C9.68348 11.0086 8.6132 10.7577 7.52837 10.759C6.44355 10.7604 5.37388 11.0138 4.40378 11.4993C3.43368 11.9848 2.5897 12.6891 1.93846 13.5567C1.83957 13.6929 1.71012 13.804 1.5605 13.8812C1.41088 13.9583 1.24526 13.9993 1.07692 14.0009C0.843426 14.0039 0.615744 13.928 0.43077 13.7855C0.317631 13.7006 0.222313 13.5943 0.150259 13.4727C0.0782045 13.351 0.0308244 13.2163 0.0108241 13.0763C-0.00917617 12.9363 -0.00140528 12.7937 0.0336934 12.6567C0.068792 12.5198 0.130531 12.391 0.215385 12.2779ZM24.0962 23.3561C24.897 22.6235 25.4577 21.666 25.7048 20.6092C25.9518 19.5524 25.8738 18.4456 25.4808 17.434C25.0879 16.4223 24.3983 15.553 23.5026 14.9401C22.6069 14.3271 21.5469 13.9991 20.4615 13.9991C19.3762 13.9991 18.3161 14.3271 17.4205 14.9401C16.5248 15.553 15.8352 16.4223 15.4423 17.434C15.0493 18.4456 14.9712 19.5524 15.2183 20.6092C15.4654 21.666 16.0261 22.6235 16.8269 23.3561C15.7722 23.8147 14.8132 24.4677 14 25.2809C13.1868 24.4677 12.2278 23.8147 11.1731 23.3561C11.9739 22.6235 12.5346 21.666 12.7817 20.6092C13.0288 19.5524 12.9507 18.4456 12.5577 17.434C12.1648 16.4223 11.4752 15.553 10.5795 14.9401C9.68385 14.3271 8.62382 13.9991 7.53846 13.9991C6.4531 13.9991 5.39307 14.3271 4.49738 14.9401C3.60169 15.553 2.91215 16.4223 2.51918 17.434C2.12621 18.4456 2.04815 19.5524 2.29524 20.6092C2.54234 21.666 3.10305 22.6235 3.90385 23.3561C2.44019 23.9906 1.16844 24.9978 0.215385 26.277C0.0953867 26.437 0.0223129 26.6273 0.00435203 26.8264C-0.0136089 27.0256 0.0242526 27.2259 0.113694 27.4047C0.203136 27.5836 0.340624 27.734 0.510752 27.8392C0.68088 27.9443 0.876926 28 1.07692 28H26.9231C27.1231 28 27.3191 27.9443 27.4892 27.8392C27.6594 27.734 27.7969 27.5836 27.8863 27.4047C27.9757 27.2259 28.0136 27.0256 27.9956 26.8264C27.9777 26.6273 27.9046 26.437 27.7846 26.277C26.8316 24.9978 25.5598 23.9906 24.0962 23.3561Z" fill="#A4022D"/>
</svg>
