<svg width="93" height="102" viewBox="0 0 93 102" fill="none" xmlns="http://www.w3.org/2000/svg">
<g clip-path="url(#clip0_221_1869)">
<path d="M3.04922 102C0.723536 101.134 -0.0675487 99.4298 4.39971e-05 97.0193C0.115202 93.139 0.0801538 89.2537 0.0200715 85.371C-0.0665896 81.1059 1.24596 76.9292 3.75826 73.4756C6.27056 70.0219 9.84526 67.4802 13.9392 66.2366C17.6517 65.0813 21.3769 63.9559 25.097 62.818C26.4813 63.5267 27.2249 64.8766 28.2137 65.9696C30.2841 68.2504 32.2818 70.596 34.3296 72.8942C35.6715 74.3914 37.4339 74.5237 39.2914 74.0845C39.8297 73.9572 40.3303 73.5854 40.9262 73.835C41.7047 74.5262 41.8825 75.5393 42.3005 76.4201C43.1041 78.1145 43.8026 79.8488 44.5912 81.5556C44.7113 81.8226 44.8415 82.0946 44.6963 82.4015C44.6019 82.539 44.479 82.6547 44.3358 82.7409C42.5834 83.8089 41.8324 85.4483 41.7798 87.4122C41.7122 90.0947 41.7423 92.7797 41.7798 95.4622C41.7798 96.5127 42.0302 96.7223 43.1041 96.7423C43.8702 96.7548 44.6362 96.7622 45.4023 96.7423C46.3811 96.7098 46.5764 96.5227 46.6064 95.5645C46.6365 94.6063 46.634 93.6431 46.6064 92.6848C46.5864 91.9088 46.8868 91.512 47.6654 91.2675C50.2139 90.469 51.4205 88.4278 50.9874 85.91C50.7596 84.6099 49.9861 83.7066 48.9547 82.9605C48.664 82.8011 48.3868 82.6183 48.126 82.414C47.8607 82.0072 48.1085 81.6404 48.2612 81.2986C49.2951 78.9504 50.319 76.5973 51.3705 74.2567C51.46 74.0043 51.6377 73.7926 51.8712 73.6603C52.4294 73.5555 52.9076 73.8375 53.4083 73.9922C55.8191 74.7408 57.5765 74.2018 59.1837 72.2829C60.0774 71.2173 61.0112 70.1843 61.95 69.1562C62.1174 68.9471 62.3499 68.7995 62.6109 68.737C63.3043 68.6421 63.9302 68.9241 64.5535 69.1262C68.0984 70.2741 71.7384 71.155 75.088 72.8493C79.9722 75.3197 83.1766 79.0627 83.9376 84.5774C84.1139 85.9236 84.2025 87.2798 84.203 88.6374C84.228 92.615 84.2155 96.5951 84.203 100.573C84.203 101.072 84.2906 101.571 83.9251 102H81.3215C80.9135 101.518 81.0111 100.934 81.0111 100.378C81.0111 95.8997 81.0111 91.4214 81.0111 86.943C81.0111 86.444 81.0462 85.9449 80.8634 85.4658C80.7935 85.2237 80.6455 85.0114 80.4423 84.8616C80.2391 84.7118 79.9921 84.633 79.7394 84.6373C79.1511 84.6373 78.8206 84.9443 78.6379 85.4708C78.4728 86.0453 78.4051 86.6432 78.4376 87.24C78.4376 91.6534 78.4376 96.066 78.4376 100.478C78.4376 101.002 78.5127 101.551 78.1272 102H14.8604C14.4749 101.551 14.5525 101.002 14.55 100.478C14.55 96.066 14.55 91.6576 14.55 87.2525C14.5838 86.6549 14.5161 86.0559 14.3497 85.4808C14.1695 84.9542 13.849 84.6423 13.2482 84.6473C12.9958 84.6427 12.7489 84.7214 12.546 84.8713C12.3431 85.0211 12.1957 85.2337 12.1267 85.4758C11.9864 85.9549 11.9363 86.4557 11.979 86.953C11.979 91.4646 11.979 95.9762 11.979 100.488C11.979 101.012 12.0541 101.561 11.6685 102.01L3.04922 102Z" fill="#383838"/>
<path d="M83.9226 102C83.9226 97.4884 83.9977 92.9718 83.8875 88.4602C83.8299 86.1346 83.7874 83.7789 82.9237 81.5331C81.903 78.865 80.1304 76.5478 77.8192 74.8606C74.75 72.5598 71.1526 71.4843 67.5726 70.3515C66.2433 69.9322 64.904 69.5479 63.5671 69.1337C63.2258 69.0017 62.8618 68.9373 62.4957 68.9441C62.4641 68.8501 62.4613 68.7489 62.4876 68.6534C62.5139 68.5579 62.5681 68.4723 62.6434 68.4076C64.3107 66.5086 65.8753 64.5173 67.7078 62.7631C72.214 64.1056 76.8378 65.1836 81.1488 67.0626C88.0332 70.057 91.8509 75.5193 92.8848 82.9006C93.015 83.8139 92.9499 84.7546 92.9499 85.6804C92.9499 89.4584 92.8573 93.2413 92.99 97.0143C93.0726 99.3674 92.3015 101.037 90.1236 102.005L83.9226 102Z" fill="#121212"/>
<path d="M11.6587 102C11.6587 96.7348 11.6587 91.4696 11.6587 86.2044C11.6587 85.5781 11.7613 85.0241 12.2495 84.5874C12.4338 84.4206 12.6571 84.3027 12.8991 84.2445C13.141 84.1862 13.3938 84.1896 13.6341 84.2542C13.8744 84.3188 14.0946 84.4426 14.2743 84.6142C14.4541 84.7858 14.5877 84.9997 14.6628 85.2362C14.8061 85.7452 14.8735 86.2723 14.8631 86.8008C14.8631 91.8664 14.8631 96.9328 14.8631 102H11.6587Z" fill="#121212"/>
<path d="M78.1074 102C78.1074 96.9344 78.1074 91.868 78.1074 86.8008C78.1076 86.3393 78.158 85.8791 78.2576 85.4284C78.4329 84.6099 78.886 84.2705 79.7146 84.2531C80.6284 84.2356 81.0364 84.7696 81.2642 85.5132C81.3176 85.8071 81.3294 86.1069 81.2993 86.4041C81.2993 91.6027 81.2993 96.8014 81.2993 102H78.1074Z" fill="#121212"/>
<path d="M34.047 60.3526C35.7243 58.8953 36.4027 57.0462 36.2701 54.8628C36.1966 53.97 36.2008 53.0724 36.2826 52.1803C36.4027 51.1822 35.9722 50.6182 35.1786 50.0892C30.2393 46.8028 27.7759 42.0866 27.2903 36.2799C27.2402 35.6661 27.0399 35.5188 26.4566 35.5039C23.6102 35.434 22.4511 34.2237 22.4511 31.3766C22.4511 30.316 22.3985 29.2505 22.4661 28.195C22.5462 26.9473 23.0044 25.8793 24.2436 25.3153C24.7167 25.51 24.7793 25.9591 24.902 26.3659C25.0547 26.865 25.1398 27.4015 25.3276 27.898C25.9684 29.5799 27.4455 30.4483 29.2154 30.0665C31.6237 29.55 33.9719 28.8363 36.4128 28.3921C39.9244 27.736 43.4923 27.4268 47.0649 27.4688C50.6197 27.5212 54.1796 27.8007 57.6669 28.6117C57.9923 28.6866 58.3228 28.734 58.5606 29.0035C58.8235 29.3853 58.7809 29.8269 58.7834 30.2511C58.7834 31.9779 58.7834 33.7022 58.7834 35.4265C58.7359 41.8196 55.9596 46.7704 50.7249 50.3986C48.8863 51.6941 46.8366 52.6624 44.6666 53.2608C46.0334 53.4854 47.2501 53.3132 48.4643 53.3481C49.5633 53.3781 49.7535 53.5552 49.7711 54.6332C49.7936 56.2926 49.8111 57.9521 49.7711 59.609C49.706 62.1592 50.5496 64.2204 52.8203 65.5778C53.1082 65.8773 52.9304 66.1593 52.7151 66.3514C50.6973 68.158 48.9224 70.2242 46.7294 71.8412C46.5884 71.8848 46.4374 71.8848 46.2963 71.8412C45.8729 71.6453 45.4912 71.37 45.1723 71.0302C43.2772 69.0339 41.1668 67.2373 39.1916 65.3308C37.6119 63.8161 36.0372 62.2965 34.4225 60.8167C34.2648 60.6795 34.0946 60.5672 34.047 60.3526Z" fill="#EEBE85"/>
<path d="M24.2986 24.9311C24.2986 20.4544 24.201 15.9752 24.3212 11.5011C24.4188 7.88281 27.1 4.48914 30.5948 3.43111C34.6353 2.20838 38.776 1.37244 42.8941 0.449162C44.7342 0.543985 46.4841 1.09795 48.2565 1.51218C50.6247 2.06864 53.0355 2.44544 55.3462 3.23647C57.2113 3.89932 58.8281 5.11549 59.9792 6.72145C61.1303 8.32741 61.7605 10.2462 61.785 12.2197C61.7951 15.2724 61.7951 18.3242 61.785 21.3752C61.785 21.8743 61.8802 22.3733 61.5147 22.8025C61.1166 22.9922 60.7261 22.8499 60.3431 22.7576C54.6027 21.3577 48.7597 20.9659 42.8891 21.2804C37.1618 21.5963 31.5088 22.7247 26.1011 24.6316C25.5353 24.8238 24.9671 25.238 24.2986 24.9311Z" fill="#A4022D"/>
<path d="M52.8977 65.755C50.9901 65.1212 49.5181 62.8829 49.4955 60.5297C49.478 58.506 49.473 56.4823 49.4955 54.4586C49.4955 53.8197 49.3153 53.5727 48.6469 53.5927C47.3251 53.6351 46.0033 53.6126 44.6814 53.5927C44.4311 53.5927 44.0581 53.7349 44.0005 53.3856C43.9429 53.0362 44.321 53.0612 44.5713 52.9888C47.2241 52.2092 49.6976 50.9179 51.8513 49.1884C55.3911 46.4185 57.4915 42.8003 58.2676 38.4409C58.8158 35.3566 58.3852 32.2225 58.4929 29.1133C58.921 28.7215 59.3841 28.9561 59.8172 29.0684C61.0414 29.3903 62.253 29.7646 63.4897 30.0341C65.6552 30.5082 67.1848 29.535 67.8132 27.4064C68.031 26.6728 67.9383 25.787 68.7169 25.2829C69.2486 25.5236 69.699 25.9125 70.0139 26.4026C70.3289 26.8927 70.4948 27.4632 70.4918 28.0453C70.5419 29.2031 70.4318 30.3709 70.5194 31.5238C70.6896 33.7696 69.3953 35.5163 66.7066 35.6062C65.858 35.6336 65.7353 35.9206 65.6627 36.6867C65.132 42.3461 62.586 46.8852 57.8295 50.0992C56.9858 50.6681 56.6178 51.247 56.6929 52.2552C56.783 53.4754 56.6629 54.7081 56.7355 55.9308C56.7712 56.7778 56.9848 57.6079 57.3626 58.3674C57.7404 59.1269 58.2738 59.799 58.9285 60.3401C57.7519 61.6327 56.4901 62.8354 55.1959 64.0133C54.7327 64.435 54.2596 64.8492 53.7964 65.2734C53.5511 65.508 53.3483 65.8773 52.8977 65.755Z" fill="#E4AD78"/>
<path d="M68.7246 25.2879L68.0186 27.651C67.3752 29.7895 65.7179 30.7652 63.5124 30.321C61.8251 29.9817 60.2229 29.2979 58.5056 29.1183C55.9567 28.4798 53.3534 28.0805 50.7299 27.9255C43.6852 27.3915 36.7858 28.2249 30.0065 30.1913C27.2903 30.9798 25.6029 29.9417 24.8594 27.1968C24.6867 26.5605 24.4639 25.9492 24.2661 25.3079L24.3037 24.9311C28.7565 23.288 33.3721 22.122 38.0725 21.4525C42.4579 20.8726 46.8918 20.7472 51.3032 21.0782C54.7604 21.3128 58.14 21.9666 61.5097 22.7027C61.6101 22.644 61.7221 22.6077 61.838 22.5965C61.9538 22.5853 62.0708 22.5994 62.1806 22.6378C64.2137 23.1197 66.2098 23.7451 68.1538 24.5093C68.3666 24.6025 68.552 24.7486 68.692 24.9336L68.7246 25.2879Z" fill="#3F5970"/>
<path d="M68.6844 24.9336C66.3187 24.0976 63.9279 23.339 61.5021 22.7027C61.5021 19.4862 61.3919 16.2647 61.5296 13.0557C61.7549 7.76553 58.1249 3.758 52.8277 2.7898C49.4741 2.20053 46.1574 1.41902 42.894 0.449163C45.087 -0.199629 47.2826 -0.0873377 49.4781 0.416723C53.7339 1.39241 58.0398 2.18842 62.2456 3.41115C64.0859 3.96835 65.7022 5.09151 66.8632 6.6199C68.0242 8.14829 68.6704 10.0036 68.7094 11.9203C68.747 16.2597 68.6944 20.5966 68.6844 24.9336Z" fill="#A4022D"/>
<path d="M34.0471 60.3526C34.3853 60.5607 34.7082 60.7925 35.0134 61.0463C38.4347 64.2919 41.8519 67.5442 45.2649 70.8031C45.6004 71.12 45.9534 71.4195 46.2989 71.7289C46.3514 72.213 45.9534 72.2978 45.643 72.4451C45.0822 72.7071 44.4889 72.8817 43.9081 73.0913C42.8892 73.3184 41.9679 73.9098 40.8839 73.9098C39.7449 74.072 38.7034 74.6235 37.4893 74.5561C36.1449 74.4813 35.0134 74.057 34.1447 73.0739C32.0568 70.7307 30.0215 68.3327 27.9512 65.9846C27.0149 64.9141 26.0461 63.8735 25.0923 62.818C27.7184 61.8772 30.3996 61.1112 33.0732 60.3226C33.3929 60.2297 33.7338 60.2402 34.0471 60.3526Z" fill="#121212"/>
<path d="M52.8976 65.755C54.5273 64.3052 56.1696 62.8704 57.6791 61.2933C58.0304 60.8977 58.4556 60.574 58.9309 60.3401C59.2022 60.2112 59.5099 60.1794 59.8021 60.2503L67.7079 62.7456C67.3324 63.7438 66.4286 64.3127 65.8028 65.1087C64.7664 66.4338 63.6048 67.659 62.4957 68.9266C61.4243 70.1294 60.3002 71.2872 59.2964 72.5449C57.9045 74.2916 55.7916 75.0003 53.6386 74.3191C53.0403 74.1319 52.4495 73.9248 51.8537 73.7277C51.0901 73.9922 50.4893 73.4781 49.8134 73.3084C49.4704 73.2261 49.1525 73.0414 48.812 72.9391C48.2734 72.8019 47.7468 72.6217 47.2373 72.4001C46.9519 72.2579 46.609 72.1506 46.6665 71.7189C48.7369 69.7276 50.9249 67.8511 52.8976 65.755Z" fill="#121212"/>
<path d="M48.0959 82.2418C50.2463 83.0852 51.5581 85.0017 51.3904 87.0478C51.1976 89.3985 49.7932 91.1003 47.5076 91.6093C46.9743 91.7291 46.8742 91.9387 46.8792 92.3929C46.8967 93.5532 46.8592 94.7136 46.8917 95.8714C46.9168 96.7298 46.5412 97.0692 45.6951 97.0417C44.6637 97.0068 43.6314 97.0068 42.5983 97.0417C41.8648 97.0667 41.5144 96.6949 41.5244 96.0436C41.5819 92.6699 41.249 89.2812 41.7121 85.9249C41.9499 84.2081 43.1015 83.0453 44.6436 82.2792C45.7351 81.5082 47.1446 81.4932 48.0959 82.2418Z" fill="#A4022D"/>
<path d="M48.096 82.2418C46.9394 81.8076 45.7928 81.9923 44.6463 82.2792L40.8911 73.9098C41.8321 73.4306 42.8395 73.0942 43.8802 72.9117C43.9753 72.9391 44.0905 72.9716 44.1306 73.0539C45.0193 74.7433 45.7353 76.5025 46.3836 78.0446C47.0946 76.4002 47.6354 74.3989 48.9221 72.747L51.8637 73.7451L48.096 82.2418Z" fill="#3F5970"/>
<path d="M48.9172 72.742L46.3687 78.5162L43.8828 72.9092C44.6338 72.3752 45.6728 72.4725 46.3086 71.7289H46.6691C47.2599 72.4176 48.1837 72.3652 48.9172 72.742Z" fill="#383838"/>
<path d="M66.043 63.4318C65.5423 64.0257 65.0416 64.6496 64.5209 65.2335C63.0189 66.8854 61.6069 68.6172 60.1599 70.3165C58.8757 71.8137 57.6089 73.4157 55.5386 73.9797C55.3033 74.0421 55.113 74.1344 54.8902 73.9797C53.5509 73.1038 51.9412 73.029 50.4792 72.5149C50.3192 72.4754 50.1612 72.428 50.006 72.3727C49.4678 72.1232 48.6491 71.9859 48.4714 71.5767C48.2085 70.9728 49.1523 70.8605 49.4978 70.4488C50.0511 69.79 50.697 69.2011 50.8972 68.3252C50.9373 68.158 50.9823 67.9859 51.1801 67.9684C52.7798 67.8237 53.6034 66.5585 54.5272 65.5354C55.1005 64.8991 55.6162 64.2528 56.3447 63.7662C57.2155 63.2144 57.9712 62.5002 58.5703 61.6626C58.7108 61.451 58.9176 61.2915 59.1584 61.2089C59.3992 61.1264 59.6606 61.1253 59.9021 61.206C61.8372 61.7774 63.7624 62.3863 65.6925 62.9852C65.7959 63.0034 65.8889 63.0591 65.9536 63.1416C66.0183 63.224 66.0502 63.3274 66.043 63.4318Z" fill="#121212"/>
</g>
<defs>
<clipPath id="clip0_221_1869">
<rect width="93" height="102" fill="white"/>
</clipPath>
</defs>
</svg>
