<svg width="19" height="19" viewBox="0 0 19 19" fill="none" xmlns="http://www.w3.org/2000/svg">
<path fill-rule="evenodd" clip-rule="evenodd" d="M1.83379 2.04472C2.98764 0.890867 4.70358 0.460938 6.87619 0.460938H8.5551C8.96932 0.460938 9.3051 0.796724 9.3051 1.21094C9.3051 1.62515 8.96932 1.96094 8.5551 1.96094H6.87619C4.85152 1.96094 3.62936 2.37046 2.89445 3.10538C2.15953 3.8403 1.75 5.06246 1.75 7.08713V12.1239C1.75 14.1485 2.15953 15.3707 2.89445 16.1056C3.62936 16.8405 4.85152 17.2501 6.87619 17.2501H11.9129C13.9376 17.2501 15.1597 16.8405 15.8947 16.1056C16.6296 15.3707 17.0391 14.1485 17.0391 12.1239V10.445C17.0391 10.0307 17.3749 9.69495 17.7891 9.69495C18.2033 9.69495 18.5391 10.0307 18.5391 10.445V12.1239C18.5391 14.2965 18.1092 16.0124 16.9553 17.1663C15.8015 18.3201 14.0855 18.7501 11.9129 18.7501H6.87619C4.70358 18.7501 2.98764 18.3201 1.83379 17.1663C0.679929 16.0124 0.25 14.2965 0.25 12.1239V7.08713C0.25 4.91452 0.679929 3.19858 1.83379 2.04472Z" fill="#A4022D"/>
<path fill-rule="evenodd" clip-rule="evenodd" d="M14.5847 0.263164C15.5672 0.166722 16.5273 0.601074 17.4632 1.53696C18.3991 2.47285 18.8334 3.43298 18.737 4.41548C18.6444 5.35865 18.0769 6.13077 17.4632 6.74453L10.8396 13.3681C10.6393 13.562 10.381 13.7283 10.1353 13.8518C9.89132 13.9744 9.59928 14.0851 9.31593 14.1256L6.78535 14.4871C6.13076 14.5772 5.49539 14.3991 5.04681 13.9523C4.59719 13.5045 4.41746 12.8685 4.51375 12.2097C4.51383 12.2091 4.5139 12.2086 4.51398 12.2081L4.87419 9.68663C4.87425 9.68618 4.87431 9.68574 4.87437 9.68529C4.91459 9.39859 5.02466 9.10457 5.14834 8.8585C5.27232 8.61184 5.4411 8.35147 5.6407 8.15186L12.2556 1.53696C12.8694 0.923202 13.6415 0.355745 14.5847 0.263164ZM14.7312 1.75599C14.306 1.79772 13.8442 2.06972 13.3163 2.59762L6.70136 9.21252C6.64913 9.26476 6.56607 9.37794 6.48858 9.53212C6.41098 9.68651 6.3701 9.82009 6.35979 9.89392L6.35945 9.89634L5.99849 12.4231L5.99807 12.426C5.96055 12.6816 6.03694 12.8214 6.10532 12.8895C6.17497 12.9589 6.31984 13.0366 6.57926 13.0013C6.57979 13.0013 6.58032 13.0012 6.58085 13.0011L9.1038 12.6407C9.17302 12.6308 9.3049 12.5904 9.46172 12.5116C9.61396 12.435 9.73196 12.3513 9.79295 12.2934L16.4025 5.68387C16.9304 5.15597 17.2024 4.6941 17.2442 4.26895C17.282 3.88314 17.1455 3.34065 16.4025 2.59762C15.6595 1.8546 15.117 1.71812 14.7312 1.75599Z" fill="#A4022D"/>
<path fill-rule="evenodd" clip-rule="evenodd" d="M11.6349 2.29366C12.0337 2.18185 12.4477 2.41453 12.5595 2.81337C13.0511 4.56678 14.4236 5.94103 16.1887 6.44113C16.5872 6.55405 16.8188 6.96865 16.7059 7.36718C16.5929 7.7657 16.1783 7.99724 15.7798 7.88432C13.5155 7.24277 11.7485 5.47745 11.1152 3.21826C11.0034 2.81942 11.2361 2.40546 11.6349 2.29366Z" fill="#A4022D"/>
</svg>
