<svg width="22" height="22" viewBox="0 0 22 22" fill="none" xmlns="http://www.w3.org/2000/svg">
<path d="M9.88839 1.24854H7.91319C2.9752 1.24854 1 3.22373 1 8.16173V14.0873C1 19.0253 2.9752 21.0005 7.91319 21.0005H13.8388C18.7768 21.0005 20.752 19.0253 20.752 14.0873V12.1121" stroke="#F2F2F2" stroke-width="1.5" stroke-linecap="round" stroke-linejoin="round"/>
<path d="M14.8659 2.25546L7.0836 10.0377C6.78732 10.334 6.49104 10.9167 6.43179 11.3414L6.00712 14.314C5.8491 15.3905 6.60955 16.1411 7.68604 15.993L10.6587 15.5683C11.0735 15.509 11.6562 15.2128 11.9623 14.9165L19.7446 7.1342C21.0878 5.79107 21.7198 4.23066 19.7446 2.25546C17.7694 0.280267 16.209 0.91233 14.8659 2.25546Z" stroke="#F2F2F2" stroke-width="1.5" stroke-miterlimit="10" stroke-linecap="round" stroke-linejoin="round"/>
<path d="M13.75 3.37109C14.4117 5.73146 16.2585 7.57827 18.6287 8.24983" stroke="#F2F2F2" stroke-width="1.5" stroke-miterlimit="10" stroke-linecap="round" stroke-linejoin="round"/>
</svg>
