<svg width="20" height="20" viewBox="0 0 20 20" fill="none" xmlns="http://www.w3.org/2000/svg">
<path d="M6.16634 5.83334H3.83301C3.55687 5.83334 3.33301 6.05719 3.33301 6.33334V13.6667C3.33301 13.9428 3.55687 14.1667 3.83301 14.1667H6.16634C6.44248 14.1667 6.66634 13.9428 6.66634 13.6667V6.33334C6.66634 6.05719 6.44248 5.83334 6.16634 5.83334Z" stroke="#F2F2F2" stroke-width="1.5" stroke-linecap="round" stroke-linejoin="round"/>
<path d="M16.1663 5.83334H13.833C13.5568 5.83334 13.333 6.05719 13.333 6.33334V13.6667C13.333 13.9428 13.5568 14.1667 13.833 14.1667H16.1663C16.4425 14.1667 16.6663 13.9428 16.6663 13.6667V6.33334C16.6663 6.05719 16.4425 5.83334 16.1663 5.83334Z" stroke="#F2F2F2" stroke-width="1.5" stroke-linecap="round" stroke-linejoin="round"/>
<path d="M0.833008 12V8C0.833008 7.72386 1.05687 7.5 1.33301 7.5H2.83301C3.10915 7.5 3.33301 7.72386 3.33301 8V12C3.33301 12.2762 3.10915 12.5 2.83301 12.5H1.33301C1.05687 12.5 0.833008 12.2762 0.833008 12Z" stroke="#F2F2F2" stroke-width="1.5" stroke-linecap="round" stroke-linejoin="round"/>
<path d="M19.167 12V8C19.167 7.72386 18.9432 7.5 18.667 7.5H17.167C16.8908 7.5 16.667 7.72386 16.667 8V12C16.667 12.2762 16.8908 12.5 17.167 12.5H18.667C18.9432 12.5 19.167 12.2762 19.167 12Z" stroke="#F2F2F2" stroke-width="1.5" stroke-linecap="round" stroke-linejoin="round"/>
<path d="M6.66699 10H13.3337" stroke="#F2F2F2" stroke-width="1.5" stroke-linecap="round" stroke-linejoin="round"/>
</svg>
