<svg width="32" height="32" viewBox="0 0 32 32" fill="none" xmlns="http://www.w3.org/2000/svg">
<path d="M9.86668 9.3335H6.13334C5.69152 9.3335 5.33334 9.69167 5.33334 10.1335V21.8668C5.33334 22.3087 5.69152 22.6668 6.13334 22.6668H9.86668C10.3085 22.6668 10.6667 22.3087 10.6667 21.8668V10.1335C10.6667 9.69167 10.3085 9.3335 9.86668 9.3335Z" stroke="#A4022D" stroke-width="2" stroke-linecap="round" stroke-linejoin="round"/>
<path d="M25.8667 9.3335H22.1333C21.6915 9.3335 21.3333 9.69167 21.3333 10.1335V21.8668C21.3333 22.3087 21.6915 22.6668 22.1333 22.6668H25.8667C26.3085 22.6668 26.6667 22.3087 26.6667 21.8668V10.1335C26.6667 9.69167 26.3085 9.3335 25.8667 9.3335Z" stroke="#A4022D" stroke-width="2" stroke-linecap="round" stroke-linejoin="round"/>
<path d="M1.33334 19.2V12.8C1.33334 12.3582 1.69152 12 2.13334 12H4.53334C4.97517 12 5.33334 12.3582 5.33334 12.8V19.2C5.33334 19.6419 4.97517 20 4.53334 20H2.13334C1.69152 20 1.33334 19.6419 1.33334 19.2Z" stroke="#A4022D" stroke-width="2" stroke-linecap="round" stroke-linejoin="round"/>
<path d="M30.6667 19.2V12.8C30.6667 12.3582 30.3085 12 29.8667 12H27.4667C27.0248 12 26.6667 12.3582 26.6667 12.8V19.2C26.6667 19.6419 27.0248 20 27.4667 20H29.8667C30.3085 20 30.6667 19.6419 30.6667 19.2Z" stroke="#A4022D" stroke-width="2" stroke-linecap="round" stroke-linejoin="round"/>
<path d="M10.6667 16H21.3333" stroke="#A4022D" stroke-width="2" stroke-linecap="round" stroke-linejoin="round"/>
</svg>
