<svg width="18" height="16" viewBox="0 0 18 16" fill="none" xmlns="http://www.w3.org/2000/svg">
<path d="M11.9271 7.76136C11.9271 6.14255 10.6189 4.83443 9.00013 4.83443C7.38133 4.83443 6.07324 6.14255 6.07324 7.76136C6.07324 9.38016 7.38133 10.6882 9.00013 10.6882C10.6189 10.6882 11.9271 9.38016 11.9271 7.76136Z" stroke="#A4022D" stroke-width="1.49" stroke-linecap="round" stroke-linejoin="round"/>
<path d="M9.00001 0.999996C11.8861 0.999996 14.5759 2.70056 16.4481 5.64383C17.184 6.79661 17.184 8.73427 16.4481 9.88708C14.5759 12.8304 11.8861 14.5309 9.00001 14.5309C6.11394 14.5309 3.42411 12.8304 1.55186 9.88708C0.816045 8.73427 0.816045 6.79661 1.55186 5.64383C3.42411 2.70056 6.11394 0.999996 9.00001 0.999996Z" stroke="#A4022D" stroke-width="1.49" stroke-linecap="round" stroke-linejoin="round"/>
</svg>
