<svg width="22" height="22" viewBox="0 0 22 22" fill="none" xmlns="http://www.w3.org/2000/svg">
<path d="M13.5298 8.53002L8.46991 13.501C7.81992 12.8624 7.41992 11.9881 7.41992 11.0155C7.41992 9.07031 9.01986 7.4985 10.9998 7.4985C11.9898 7.4985 12.8798 7.89146 13.5298 8.53002Z" stroke="#676767" stroke-width="1.5" stroke-linecap="round" stroke-linejoin="round"/>
<path d="M16.8196 4.89506C15.0696 3.59828 13.0697 2.89095 10.9997 2.89095C7.46974 2.89095 4.1798 4.93436 1.88983 8.47102C0.989847 9.85623 0.989847 12.1845 1.88983 13.5697C2.67982 14.7879 3.5998 15.8391 4.59979 16.684" stroke="#676767" stroke-width="1.5" stroke-linecap="round" stroke-linejoin="round"/>
<path d="M7.41992 18.4131C8.5599 18.8846 9.76984 19.1401 10.9998 19.1401C14.5298 19.1401 17.8197 17.0967 20.1097 13.56C21.0097 12.1748 21.0097 9.84651 20.1097 8.46127C19.7797 7.95042 19.4197 7.46904 19.0497 7.01713" stroke="#676767" stroke-width="1.5" stroke-linecap="round" stroke-linejoin="round"/>
<path d="M14.5094 11.7032C14.2494 13.0884 13.0994 14.2181 11.6895 14.4735" stroke="#676767" stroke-width="1.5" stroke-linecap="round" stroke-linejoin="round"/>
<path d="M8.46988 13.501L1 20.8396" stroke="#676767" stroke-width="1.5" stroke-linecap="round" stroke-linejoin="round"/>
<path d="M21.0002 1.19141L13.5303 8.52998" stroke="#676767" stroke-width="1.5" stroke-linecap="round" stroke-linejoin="round"/>
</svg>
