<svg width="41" height="40" viewBox="0 0 41 40" fill="none" xmlns="http://www.w3.org/2000/svg">
<path d="M21.6054 40H19.1283C18.6453 39.9395 18.1612 39.8874 17.6833 39.8176C13.7467 39.2485 10.2674 37.6569 7.29384 34.9897C3.85889 31.9087 1.71308 28.0772 0.894601 23.5057C0.761456 22.7667 0.688174 22.0184 0.584961 21.2742V18.7727C0.644825 18.2849 0.695398 17.796 0.764551 17.3135C1.325 13.3632 2.87424 9.85899 5.50309 6.87908C9.33334 2.54315 14.1379 0.249066 19.89 0.063538C23.6315 -0.0584101 27.1614 0.827537 30.3528 2.80476C36.5084 6.61642 39.8174 12.1979 40.1322 19.496C40.2974 23.3118 39.3571 26.8963 37.3899 30.168C34.2584 35.3711 29.7159 38.5637 23.777 39.6935C23.0607 39.8301 22.33 39.8999 21.6054 40ZM22.0781 32.287V20.7176H25.2912C25.4295 19.349 25.5647 18.0139 25.704 16.6422H22.0719V14.4565C22.0719 13.4142 22.3661 13.1161 23.4065 13.1151H25.6204V9.18254C25.5706 9.16254 25.5187 9.14855 25.4656 9.14085C24.227 9.14085 22.9885 9.07414 21.7592 9.14085C19.2666 9.28677 17.7968 10.5469 17.4191 12.9254C17.2519 13.9802 17.3293 15.0757 17.2963 16.1565C17.2963 16.3056 17.2963 16.4546 17.2963 16.6526H15.0607V20.7415H17.3045V32.2901L22.0781 32.287Z" fill="#A4022D"/>
</svg>
