<svg width="24" height="28" viewBox="0 0 24 28" fill="none" xmlns="http://www.w3.org/2000/svg">
<path d="M10.6526 27.305C10.0424 27.305 9.43224 27.1525 8.87292 26.8474C7.74157 26.2118 7.06779 25.0805 7.06779 23.7966V16.9957C7.06779 16.3474 6.64827 15.394 6.25421 14.8983L1.42373 9.82627C0.622881 9.02543 0 7.62711 0 6.59745V3.64834C0 1.60173 1.55087 0 3.52121 0H20.4788C22.4237 0 24 1.57629 24 3.52121V6.34324C24 7.67798 23.1992 9.21609 22.4364 9.96609C22.0678 10.3347 21.4576 10.3347 21.089 9.96609C20.7203 9.59745 20.7203 8.98728 21.089 8.61864C21.5593 8.1483 22.0932 7.09324 22.0932 6.34324V3.52121C22.0932 2.63138 21.3686 1.90678 20.4788 1.90678H3.52121C2.61867 1.90678 1.90678 2.66953 1.90678 3.64834V6.59745C1.90678 7.06779 2.28813 7.99578 2.7839 8.49154L7.67801 13.6398C8.32631 14.4406 8.96184 15.7881 8.96184 16.9957V23.7966C8.96184 24.6355 9.53391 25.0423 9.78815 25.1821C10.3348 25.4872 10.9831 25.4745 11.4915 25.1694L13.2712 24.0254C13.6398 23.8093 13.9958 23.1101 13.9958 22.6398C13.9958 22.1186 14.428 21.6864 14.9492 21.6864C15.4703 21.6864 15.9025 22.1186 15.9025 22.6398C15.9025 23.7838 15.1907 25.0932 14.2881 25.6398L12.5212 26.7838C11.9492 27.1271 11.3009 27.305 10.6526 27.305Z" fill="#A4022D"/>
<path d="M17.1872 20.3392C14.416 20.3392 12.166 18.0892 12.166 15.318C12.166 12.5468 14.416 10.2969 17.1872 10.2969C19.9584 10.2969 22.2084 12.5468 22.2084 15.318C22.2084 18.0892 19.9584 20.3392 17.1872 20.3392ZM17.1872 12.2036C15.4711 12.2036 14.0728 13.6019 14.0728 15.318C14.0728 17.0341 15.4711 18.4324 17.1872 18.4324C18.9033 18.4324 20.3016 17.0341 20.3016 15.318C20.3016 13.6019 18.9033 12.2036 17.1872 12.2036Z" fill="#A4022D"/>
<path d="M22.0163 21.1015C21.7748 21.1015 21.5333 21.0126 21.3426 20.8219L20.0714 19.5507C19.7028 19.1821 19.7028 18.5719 20.0714 18.2032C20.44 17.8346 21.0502 17.8346 21.4189 18.2032L22.69 19.4744C23.0587 19.8431 23.0587 20.4532 22.69 20.8219C22.5121 20.9998 22.2578 21.1015 22.0163 21.1015Z" fill="#A4022D"/>
</svg>
