<svg width="110" height="101" viewBox="0 0 110 101" fill="none" xmlns="http://www.w3.org/2000/svg">
<path d="M109.988 29.6336C109.394 30.5557 108.428 30.1765 107.61 30.3144C107.552 30.3575 107.498 30.4293 107.437 30.4351C105.01 30.6879 102.579 30.8372 100.161 30.3604C100.503 28.5017 100.405 26.6258 100.416 24.747C100.427 24.2812 100.411 23.8151 100.37 23.3509C100.253 22.2305 100.255 22.2018 101.327 22.2305C104.004 22.2765 106.685 22.1041 109.371 22.3224L110 22.7591L109.988 29.6336Z" fill="#A4022D"/>
<path d="M107.633 92.9774C108.446 93.1038 109.411 92.6902 109.989 93.6497V100.536C109.497 100.865 108.911 101.026 108.32 100.992C106.087 100.952 103.853 100.955 101.618 100.941C102.123 99.1308 101.905 97.2779 101.942 95.4394C101.986 94.8293 101.902 94.2168 101.695 93.641C101.595 93.3969 101.408 93.1096 101.735 92.8711C103.706 92.5954 105.674 92.4115 107.633 92.9774Z" fill="#121212"/>
<path d="M109.359 22.3224H100.6C100.902 24.6752 100.698 26.9763 100.735 29.2716C100.735 29.7111 100.287 29.895 100.109 30.2426C99.8219 30.5931 99.4255 30.5902 99.0348 30.616C98.6441 30.6419 98.2476 30.616 97.8541 30.616C66.7576 30.616 35.6603 30.616 4.56191 30.616C3.82936 30.616 3.05085 30.7913 2.37575 30.3058C2.08848 30.3058 1.80121 30.2742 1.51393 30.2684C0.344728 30.2455 0 29.9151 0 28.7172C0 26.9935 0 25.2871 0 23.5721C0 22.5982 0.425165 22.1357 1.43637 22.1357C4.39816 22.1357 7.36283 22.1127 10.3275 22.0955C10.7555 22.1127 11.1893 22.1415 11.6116 22.1415C40.722 22.1415 69.8229 22.1415 98.9141 22.1415C102.028 22.1415 105.142 22.1127 108.256 22.1127C108.618 22.13 109.038 21.9748 109.359 22.3224Z" fill="#A4022D"/>
<path d="M72.5225 8.18858C73.1201 6.10872 73.7195 4.02981 74.3209 1.95186C74.6914 0.653386 75.3206 0.093202 76.349 0.116184C77.3775 0.139166 77.998 0.736695 78.2565 2.05528C78.9824 5.77069 79.6958 9.48801 80.3967 13.2073C80.615 14.3563 80.0836 15.2182 79.0925 15.4078C78.179 15.5744 77.3688 14.9395 77.1505 13.8393C76.8431 12.2995 76.5616 10.7539 76.2686 9.2084C76.2169 8.92113 76.2514 8.63385 75.9239 8.42702C75.4068 10.2139 74.8954 11.9892 74.3726 13.7617C74.0077 15.0027 73.4131 15.5141 72.3846 15.4853C71.2758 15.4566 70.7501 14.7671 70.4657 13.7847C69.9486 12.0064 69.4171 10.2282 68.7047 8.42414C68.4346 9.86626 68.1636 11.3074 67.8917 12.7476C67.817 13.1326 67.7653 13.5233 67.682 13.8967C67.4579 14.9309 66.688 15.5399 65.8003 15.402C64.9127 15.2641 64.272 14.4942 64.4358 13.4371C64.7748 11.2136 65.1942 9.00156 65.5849 6.78955C65.8721 5.13486 66.1594 3.48016 66.507 1.83983C66.7943 0.509749 67.7164 -0.105017 68.9029 0.167893C69.8423 0.383349 70.1899 1.10728 70.4283 1.92601C71.0392 4.00587 71.6502 6.08669 72.2611 8.16847L72.5225 8.18858Z" fill="#121212"/>
<path d="M40.5055 9.38651C39.9884 9.38651 39.4972 9.40662 39.006 9.38651C37.8827 9.32905 37.1645 8.64821 37.1846 7.68585C37.2048 6.72348 37.9201 6.0685 39.0692 6.03977C40.1407 6.01104 41.2151 6.00529 42.2895 6.03977C43.5162 6.07711 44.0993 6.71199 44.1079 7.93577C44.1338 11.4319 42.1372 14.3477 39.1553 15.1722C37.9351 15.4872 36.6563 15.4981 35.4309 15.2041C34.2055 14.9101 33.0709 14.3201 32.1264 13.4859C31.1819 12.6516 30.4564 11.5984 30.0134 10.4187C29.5704 9.2389 29.4234 7.96851 29.5854 6.71877C29.7473 5.46903 30.2132 4.27806 30.9423 3.25017C31.6714 2.22229 32.6413 1.38884 33.7673 0.82284C34.8932 0.256837 36.1407 -0.0244563 37.4006 0.00359634C38.6605 0.031649 39.8943 0.368192 40.9939 0.983749C42.1861 1.64448 42.5796 2.57812 42.0568 3.50314C41.534 4.42816 40.6463 4.54882 39.4426 3.92256C36.9807 2.64132 34.1683 3.58358 33.1427 6.03115C32.9131 6.59578 32.803 7.20192 32.8196 7.81124C32.8362 8.42057 32.979 9.01983 33.239 9.57115C33.499 10.1225 33.8705 10.6138 34.3301 11.0142C34.7897 11.4146 35.3274 11.7153 35.9092 11.8973C38.0838 12.5896 39.931 11.6129 40.5055 9.38651Z" fill="#121212"/>
<path d="M54.2343 4.53732C55.0444 3.29917 55.777 2.15583 56.5325 1.02684C57.2133 0.00701744 58.1355 -0.248656 58.9858 0.3144C59.8361 0.877457 59.951 1.79099 59.2961 2.8539C59.229 2.98034 59.1521 3.10136 59.0662 3.21587C56.5239 6.20064 55.2714 9.56462 55.8402 13.5577C55.8811 13.7896 55.8705 14.0276 55.809 14.2549C55.7476 14.4822 55.6368 14.6931 55.4846 14.8727C55.3324 15.0524 55.1425 15.1962 54.9284 15.2942C54.7143 15.3921 54.4812 15.4417 54.2458 15.4394C53.2892 15.4566 52.6227 14.7241 52.5825 13.6037C52.571 13.4967 52.571 13.3889 52.5825 13.2819C53.157 9.59047 52.0769 6.40748 49.658 3.62092C49.3884 3.28729 49.1562 2.92507 48.9657 2.54077C48.5032 1.67895 48.7186 0.759675 49.4713 0.277055C49.65 0.155358 49.8515 0.0712082 50.0637 0.0297035C50.2759 -0.0118011 50.4943 -0.0097963 50.7057 0.0355964C50.9171 0.0809892 51.1171 0.168825 51.2935 0.293782C51.4699 0.418738 51.6192 0.578214 51.7321 0.762547C52.571 1.95186 53.3495 3.19288 54.2343 4.53732Z" fill="#121212"/>
<path d="M22.9821 8.27476C22.9768 8.49854 22.9262 8.71893 22.8334 8.92264C22.7406 9.12634 22.6075 9.30914 22.4422 9.46001C22.2768 9.61088 22.0826 9.72669 21.8713 9.80046C21.6599 9.87423 21.4358 9.90443 21.2125 9.88924C20.9974 9.8819 20.786 9.83075 20.5913 9.73893C20.3966 9.64711 20.2227 9.51654 20.0801 9.3552C19.9376 9.19387 19.8295 9.00516 19.7624 8.80061C19.6953 8.59607 19.6707 8.37999 19.6899 8.16559C19.7044 7.72903 19.8917 7.31609 20.2107 7.01763C20.5296 6.71916 20.954 6.55962 21.3906 6.5741C21.8272 6.58857 22.2401 6.77588 22.5386 7.09482C22.837 7.41375 22.9966 7.83819 22.9821 8.27476Z" fill="#A4022D"/>
<path d="M90.29 8.21443C90.2961 8.42859 90.2599 8.64186 90.1835 8.84201C90.1071 9.04216 89.9919 9.22527 89.8446 9.38084C89.6973 9.53642 89.5207 9.6614 89.3251 9.74864C89.1294 9.83588 88.9184 9.88366 88.7042 9.88924C88.4806 9.90263 88.2566 9.86906 88.0467 9.79071C87.8368 9.71236 87.6456 9.59096 87.4855 9.4343C87.3253 9.27764 87.1997 9.0892 87.1167 8.88109C87.0337 8.67299 86.9952 8.44981 87.0036 8.22593C87.0043 8.01054 87.0476 7.79742 87.131 7.59883C87.2144 7.40023 87.3362 7.22008 87.4894 7.06871C87.6427 6.91735 87.8243 6.79776 88.0239 6.71682C88.2235 6.63588 88.4372 6.59519 88.6525 6.59708C88.8684 6.58747 89.084 6.62258 89.2856 6.70019C89.4873 6.7778 89.6708 6.89625 89.8245 7.04811C89.9783 7.19996 90.099 7.38195 90.1791 7.58266C90.2592 7.78336 90.2969 7.99845 90.29 8.21443Z" fill="#A4022D"/>
<path d="M2.37012 92.9803C2.37012 81.1695 2.37682 69.3597 2.39023 57.5508C2.39023 50.323 2.39693 43.0952 2.41034 35.8674C2.77805 35.6721 3.17736 35.7266 3.55943 35.7266C34.5601 35.7266 65.5608 35.7266 96.5614 35.7266C97.2419 35.6998 97.9233 35.719 98.6011 35.7841C100.207 35.9995 101.098 36.847 101.408 38.4385C101.503 39.0079 101.541 39.5852 101.523 40.1621C101.523 57.2071 101.523 74.252 101.523 91.2969C101.523 91.8973 101.615 92.5207 101.235 93.0665C100.77 93.4227 100.218 93.3739 99.687 93.3739C92.4554 93.3739 85.2247 93.3739 77.9949 93.3739C76.346 93.3739 76.1679 93.1785 76.1679 91.498C76.1679 81.2251 76.1679 70.9512 76.1679 60.6764C76.1679 60.1018 76.2225 59.5273 76.0214 58.9757C75.5617 57.3526 74.7976 56.7263 73.1285 56.6402C72.3787 56.6028 71.629 56.6402 70.8763 56.6402H38.2621C37.7996 56.6402 37.3342 56.6402 36.8688 56.6545C35.2026 56.7436 34.4385 57.3584 33.9702 58.9843C33.7663 59.5388 33.8209 60.1133 33.8209 60.685C33.8209 70.7779 33.8209 80.8688 33.8209 90.9579C33.8209 91.3859 33.8209 91.8197 33.8209 92.2449C33.8209 92.9343 33.4589 93.2963 32.7752 93.3566C32.419 93.3882 32.0627 93.3911 31.7036 93.3911C22.5434 93.3911 13.3832 93.3911 4.22303 93.3911C3.57954 93.3538 2.90157 93.4974 2.37012 92.9803Z" fill="#D7D6D5"/>
<path d="M101.172 92.9688C101.172 75.1119 101.172 57.253 101.172 39.3923C101.172 37.0682 100.149 36.08 97.8166 36.08C66.498 36.08 35.1852 36.08 3.8781 36.08C3.38686 36.08 2.86977 36.1834 2.41875 35.8732L2.38428 30.323C2.84966 30.323 3.31504 30.2857 3.78043 30.2857H98.8221C99.253 30.2857 99.6839 30.2656 100.109 30.2541L107.61 30.3259C107.61 50.7491 107.61 71.1724 107.61 91.5956C107.61 92.061 107.61 92.5235 107.63 92.9889L101.62 93.0521C101.585 93.0762 101.546 93.0931 101.505 93.1019C101.463 93.1107 101.42 93.1113 101.379 93.1035C101.337 93.0958 101.297 93.0799 101.262 93.0568C101.226 93.0337 101.196 93.0038 101.172 92.9688Z" fill="#D7D6D5"/>
<path d="M101.172 92.9688L101.623 93.0406C101.856 93.3108 102.033 93.6247 102.144 93.9641C102.254 94.3034 102.296 94.6614 102.267 95.0171C102.221 96.373 102.215 97.7347 102.267 99.0935C102.303 99.4284 102.264 99.7673 102.151 100.085C102.038 100.402 101.855 100.69 101.614 100.926C101.005 100.926 100.399 100.958 99.7932 100.958H2.01092C0.132146 100.958 0 100.826 0 98.947V94.8763C0 93.2302 0.201092 93.0291 1.83281 93.009C2.01092 93.009 2.18903 92.9889 2.36714 92.9803C12.4907 92.9803 22.6171 92.9803 32.7406 93.0263C33.6828 93.0263 33.5564 92.5005 33.5564 91.9317C33.5564 81.3428 33.5564 70.753 33.5564 60.1621C33.5564 59.7083 33.4444 59.2314 33.6886 58.7947C34.243 59.3693 34.062 60.0731 34.062 60.7309C34.0755 70.6132 34.0755 80.4944 34.062 90.3747C34.062 90.7338 34.062 91.09 34.062 91.4491C34.1109 92.512 34.3924 92.7332 35.4754 92.6471C36.0327 92.604 36.3373 92.3598 36.3373 91.7852C36.3487 91.3907 36.3545 90.9972 36.3545 90.6045C36.3545 80.9004 36.3545 71.1982 36.3545 61.498C36.3545 60.8631 36.1017 60.1076 36.8544 59.6594C37.5467 60.5385 37.1416 61.5583 37.2221 62.5178C37.2881 66.8269 37.2393 71.1073 37.2479 75.402C37.2479 80.6993 37.2479 85.9967 37.2479 91.2969C37.2479 92.5436 37.3513 92.6384 38.5981 92.6413C42.8574 92.6413 47.1167 92.6413 51.376 92.6413C52.8124 92.6413 52.8699 92.5752 52.8699 91.1073C52.8699 82.0141 52.8699 72.9171 52.8699 63.8163C52.8565 63.3871 52.8661 62.9575 52.8986 62.5293C52.9647 61.564 52.6113 60.5528 53.2203 59.6565C53.7432 59.7686 53.703 60.2167 53.7518 60.5873C53.7915 61.0516 53.8011 61.5179 53.7805 61.9835V90.4379C53.7805 90.7941 53.8006 91.1532 53.7805 91.5123C53.7346 92.3397 54.108 92.6614 54.9296 92.6413C55.7512 92.6212 56.1218 92.3081 56.0787 91.4922C56.0787 91.136 56.0787 90.7769 56.0787 90.4207V61.9835C56.0787 61.5181 56.0644 61.0498 56.096 60.5873C56.1706 59.4784 56.4234 59.1768 57.5323 59.1653C62.3298 59.1251 67.1263 59.1251 71.9219 59.1653C72.3327 59.1653 72.8067 59.1481 73.0078 59.6652C72.5079 60.1363 71.8759 60.0444 71.2841 60.0444C67.1703 60.0444 63.0595 60.0444 58.9457 60.0444C57.021 60.0444 57.021 60.0444 56.9836 61.9806C56.9836 62.1587 56.9578 62.3368 56.9606 62.5149C57.0267 67.9932 56.9779 73.4687 56.9894 78.9441C56.9894 83.0607 56.9894 87.1774 56.9894 91.2969C56.9894 92.5465 57.0985 92.6442 58.3424 92.6528C62.2063 92.6815 66.073 92.6155 69.9368 92.6844H70.046C72.6314 92.5781 72.6314 92.5781 72.6314 89.9352C72.6314 80.4916 72.6314 71.0489 72.6314 61.6071C72.6314 60.978 72.4907 60.3087 72.9446 59.7485C73.4875 59.7284 73.4329 60.1736 73.4875 60.4896C73.5446 60.9517 73.56 61.418 73.5335 61.8829V90.4264C73.5335 90.7137 73.5335 91.001 73.5335 91.2883C73.5593 92.4833 73.6972 92.6499 74.6596 92.6557C75.6219 92.6614 75.8087 92.4891 75.8374 91.3371C75.8546 90.55 75.8374 89.7628 75.8374 88.9757C75.8374 79.5321 75.8374 70.0894 75.8374 60.6476C75.8374 60.0214 75.6794 59.3434 76.2051 58.8148C76.4493 59.2515 76.3344 59.7255 76.3373 60.1823C76.3373 70.7329 76.3373 81.2844 76.3373 91.8369C76.3373 92.7476 76.5154 93.0464 77.4864 93.0406C85.4352 92.9746 93.3036 92.9832 101.172 92.9688Z" fill="#121212"/>
<path d="M73.0393 59.7025C72.752 59.3635 72.3785 59.4928 72.0367 59.4928C67.2421 59.4928 62.4475 59.5129 57.6529 59.4641C56.6762 59.4641 56.4722 59.7686 56.4751 60.685C56.5067 70.9895 56.4952 81.294 56.4923 91.5985C56.4923 93.0033 56.4923 93.0119 55.1191 93.0033C53.2978 93.0033 53.4989 93.2044 53.4989 91.4175C53.4989 81.2557 53.4989 71.0948 53.4989 60.9349C53.4989 60.5241 53.654 60.0731 53.3093 59.7054C52.8928 60.0616 52.3843 60.053 51.8729 60.0559C47.3704 60.0559 42.8698 60.0559 38.3711 60.0559C37.8712 60.0559 37.3627 60.076 36.9347 59.714C36.5727 60.0702 36.7365 60.527 36.7365 60.9349C36.725 71.2002 36.725 81.4635 36.7365 91.7249C36.7365 92.7591 36.4492 93.1613 35.4265 93.0148C35.1404 92.9784 34.8508 92.9784 34.5647 93.0148C33.9183 93.0808 33.6253 92.8252 33.7029 92.153C33.7172 91.9032 33.7172 91.6529 33.7029 91.4032C33.7029 80.9981 33.7029 70.5921 33.7029 60.1851C33.7029 59.7197 33.677 59.2572 33.6655 58.7919C33.8666 57.4273 34.6365 56.6028 35.9637 56.3529C36.2821 56.3049 36.6042 56.2857 36.9261 56.2954C48.9494 56.2954 60.9728 56.2954 72.9962 56.2954C74.9755 56.2954 76.0212 57.117 76.2539 58.8033C76.2424 63.6295 76.2318 68.4557 76.2223 73.2819C76.2223 79.4698 76.2223 85.6548 76.2366 91.8398C76.2366 92.6758 76.093 93.0636 75.1392 93.0205C72.8698 92.9228 73.226 93.2934 73.2231 91.0699C73.2078 81.023 73.203 70.9761 73.2088 60.9292C73.2088 60.5212 73.3725 60.0673 73.0077 59.7083L73.0393 59.7025Z" fill="#121212"/>
<path d="M85.6738 83.5865C85.082 83.4715 84.8579 83.0694 84.8579 82.5092C84.8732 76.7771 84.8885 71.046 84.9039 65.3158C85.0331 65.2526 84.8464 65.2699 84.9843 65.2469C87.2867 64.824 89.6483 64.8396 91.9449 65.2929C92.304 65.7123 92.2753 66.2236 92.2782 66.7292C92.2782 71.7297 92.2782 76.7311 92.2782 81.7335C92.2782 83.4313 92.0168 83.687 90.3678 83.6611C88.8108 83.6267 87.2394 83.7588 85.6738 83.5865Z" fill="#F5F5F5"/>
<path d="M13.9383 83.5663C13.3293 83.4572 13.2891 82.9918 13.2891 82.5092C13.3006 76.7637 13.314 71.0268 13.3293 65.2986C13.674 64.9711 14.1135 64.9941 14.5416 64.9941C16.044 64.9941 17.5436 64.9769 19.046 64.9941C20.2526 65.0113 20.5054 65.2354 20.5312 66.4305C20.5772 68.6109 20.5312 70.7913 20.5312 72.9717C20.5312 75.8329 20.5312 78.6932 20.5312 81.5526C20.5587 82.0166 20.5181 82.4821 20.4106 82.9343C20.2871 83.3337 20.0745 83.6583 19.5947 83.6468C17.7188 83.6094 15.8257 83.7646 13.9383 83.5663Z" fill="#F5F5F5"/>
<path d="M13.9386 83.5663C15.6622 83.5663 17.3657 83.5261 19.0779 83.5663C19.865 83.5836 20.1954 83.2561 20.1954 82.5092C20.1954 77.0136 20.1954 71.5181 20.1954 66.0225C20.1954 65.3417 19.8363 65.29 19.3135 65.2929C17.3025 65.3072 15.3175 65.2929 13.3209 65.2929C13.307 65.2297 13.3003 65.1651 13.3008 65.1004C13.4647 64.9615 13.6553 64.8575 13.8607 64.7948C14.0662 64.7321 14.2823 64.7119 14.4959 64.7356C16.3861 64.7356 18.2735 64.6953 20.1638 64.7557C21.379 64.704 22.5941 64.7356 23.8093 64.7356C24.2718 64.7356 24.7458 64.7356 25.1106 65.1033C25.1106 70.8143 25.1106 76.5281 25.1365 82.2391C25.1365 83.1728 24.7171 83.7129 23.838 83.7244C20.6636 83.7646 17.4835 83.7416 14.3063 83.7244C14.1914 83.7358 14.0765 83.6267 13.9386 83.5663Z" fill="#D7D6D5"/>
<path d="M85.6738 83.5865L90.3937 83.5635C91.7928 83.5635 91.9421 83.4141 91.9421 82.0323C91.9421 76.4554 91.9469 70.8784 91.9565 65.3015C93.2406 65.3015 94.5276 65.3015 95.8088 65.2728C96.4207 65.2555 96.7109 65.4078 96.708 66.0972C96.6869 71.5593 96.6869 77.0175 96.708 82.4718C96.708 83.213 96.3949 83.7129 95.6939 83.7186C92.4133 83.7473 89.1326 83.7186 85.8519 83.6956C85.7916 83.6899 85.7342 83.6152 85.6738 83.5865Z" fill="#D7D6D5"/>
<path d="M40.6836 46.6229L40.6146 45.9249C40.6146 45.8703 40.5916 45.8186 40.5773 45.7669C40.5198 44.7507 40.5198 43.7322 40.5773 42.716C40.5773 42.6643 40.6031 42.6126 40.6175 42.5609C40.6319 41.5612 40.6319 40.55 40.6577 39.5617C40.6893 38.4701 41.08 38.0536 42.14 38.0392C43.7086 38.0162 45.2828 38.0162 46.8513 38.0392C47.9142 38.0536 48.2877 38.4701 48.3279 39.5617C48.3509 40.5615 48.3538 41.5727 48.3653 42.5609C48.5976 43.0912 48.7176 43.6639 48.7176 44.2429C48.7176 44.8219 48.5976 45.3946 48.3653 45.9249L48.2963 46.6143C48.0636 47.2779 47.5609 47.5393 46.8915 47.5508C45.2857 47.5767 43.6798 47.5796 42.074 47.5508C41.419 47.5393 40.8789 47.3354 40.6836 46.6229Z" fill="#A4022D"/>
<path d="M61.6921 46.6143L61.626 45.9249C61.3944 45.3938 61.2749 44.8207 61.2749 44.2414C61.2749 43.6621 61.3944 43.089 61.626 42.558C61.626 41.5238 61.6605 40.4896 61.6547 39.4555C61.6547 38.5218 62.1201 38.0507 63.0193 38.0392C64.6625 38.0191 66.3057 38.0392 67.9489 38.0392C68.8969 38.0392 69.2933 38.5936 69.3221 39.4612C69.3594 40.4954 69.3565 41.5296 69.3709 42.5666C69.3853 42.6183 69.3967 42.67 69.4111 42.7218C69.4729 43.7378 69.4729 44.7566 69.4111 45.7726C69.4111 45.8243 69.3853 45.876 69.3709 45.9277L69.302 46.6316C69.1238 47.2865 68.6441 47.5307 68.0178 47.548C66.3775 47.5939 64.7372 47.5796 63.0968 47.548C62.4304 47.5422 61.9305 47.2779 61.6921 46.6143Z" fill="#A4022D"/>
<path d="M84.8808 65.1004C84.8808 63.2101 84.8808 61.317 84.855 59.4267C84.855 58.4557 85.2888 57.9731 86.277 57.9904C87.9547 58.0105 89.6323 58.0133 91.3071 58.022C91.7926 58.2259 92.169 58.5391 92.2092 59.0964C92.3212 60.9294 92.3212 62.7675 92.2092 64.6005C92.1842 64.7773 92.1049 64.9419 91.9822 65.0717V65.1722C89.6094 65.1492 87.2422 65.2785 84.8808 65.1004Z" fill="#A4022D"/>
<path d="M20.201 65.063L13.3064 65.1061C13.2949 63.145 13.2824 61.1829 13.269 59.2199C13.269 58.381 13.6798 57.9789 14.5216 57.9875C16.2711 58.0047 18.0206 58.0076 19.7672 58.0162C19.9705 58.0852 20.1477 58.2151 20.2747 58.3883C20.4016 58.5615 20.4722 58.7696 20.4767 58.9843C20.5572 60.8229 20.5715 62.6614 20.4767 64.4971C20.4548 64.7125 20.357 64.913 20.201 65.063Z" fill="#A4022D"/>
<path d="M61.6263 42.558V45.9249H48.3657C48.3657 44.8016 48.3657 43.6813 48.3657 42.5609L61.6263 42.558Z" fill="#A4022D"/>
<path d="M91.9765 65.0659C91.9765 63.325 91.919 61.5813 91.9621 59.8375C91.9936 59.5045 91.9512 59.1686 91.8379 58.8538C91.7247 58.5389 91.5435 58.253 91.3071 58.0162C92.7004 58.0162 94.0937 58.0162 95.487 57.9789C96.4005 57.9616 96.8113 58.4787 96.8314 59.2917C96.8716 61.0154 96.8314 62.7218 96.8544 64.4368C96.8544 64.951 96.6533 65.132 96.1534 65.1205C94.7602 65.0889 93.364 65.0831 91.9765 65.0659Z" fill="#A4022D"/>
<path d="M20.2014 65.063C20.2014 63.1728 20.1842 61.2825 20.2014 59.3923C20.2235 59.1463 20.1968 58.8983 20.1229 58.6627C20.0489 58.4271 19.9292 58.2083 19.7705 58.0191C21.1322 58.0191 22.491 57.999 23.8498 57.9846C24.749 57.9846 25.1454 58.4328 25.1397 59.3147C25.1253 61.2452 25.1253 63.1785 25.1195 65.1119L20.2014 65.063Z" fill="#A4022D"/>
<path d="M90.8243 48.0938C89.9309 48.0938 89.0403 48.1139 88.1498 48.0938C87.0294 48.0622 86.3428 47.4072 86.3457 46.4132C86.3457 45.471 87.0007 44.7901 88.0694 44.7643C89.8849 44.7212 91.7034 44.7183 93.5276 44.7643C94.6278 44.793 95.3546 45.5571 95.3144 46.4879C95.2742 47.4187 94.4899 48.065 93.3897 48.0852C92.5336 48.1081 91.6775 48.0938 90.8243 48.0938Z" fill="#A4022D"/>
<path d="M19.1786 48.0938C18.2852 48.0938 17.3889 48.1139 16.4955 48.0938C15.4699 48.0651 14.7029 47.367 14.6741 46.4908C14.6671 46.2642 14.7062 46.0386 14.789 45.8276C14.8719 45.6166 14.9968 45.4247 15.1561 45.2635C15.3155 45.1023 15.5059 44.9751 15.7159 44.8898C15.9259 44.8045 16.1511 44.7628 16.3777 44.7672C18.2392 44.7135 20.0998 44.7135 21.9594 44.7672C23.0568 44.8016 23.6831 45.5054 23.64 46.4649C23.5969 47.4244 22.9275 48.0277 21.8646 48.0823H19.1786V48.0938Z" fill="#A4022D"/>
<path d="M61.6919 46.6143C62.1889 47.1487 62.795 47.2923 63.5189 47.2636C64.9093 47.2119 66.3055 47.2147 67.6959 47.2636C67.9954 47.2923 68.2974 47.2495 68.5771 47.1386C68.8568 47.0277 69.1062 46.852 69.3046 46.6258C69.3247 47.4101 69.3765 48.1943 69.3592 48.9757C69.3362 50.0358 68.8967 50.458 67.8482 50.4667C66.2768 50.4667 64.6881 50.4667 63.1311 50.4667C62.0596 50.4667 61.666 50.0559 61.6603 48.97C61.6517 48.1857 61.6804 47.39 61.6919 46.6143Z" fill="#A4022D"/>
<path d="M40.6839 46.6229C41.132 47.1688 41.7181 47.2808 42.4075 47.2607C43.7634 47.2205 45.1222 47.2119 46.4753 47.2607C47.2021 47.2894 47.8083 47.1487 48.3024 46.6115C48.3024 47.4733 48.3455 48.3351 48.3368 49.1826C48.3282 50.03 47.8829 50.4494 47.0757 50.4609C45.3521 50.481 43.6428 50.4609 41.9278 50.4609C41.086 50.4609 40.681 49.9496 40.6465 49.1826C40.5977 48.338 40.6638 47.479 40.6839 46.6229Z" fill="#A4022D"/>
<path d="M40.6148 45.9249C39.7932 45.9249 38.9687 45.9565 38.1471 45.9249C37.1129 45.8731 36.4062 45.1607 36.4033 44.2501C36.4005 43.3394 37.1158 42.6298 38.15 42.5781C38.9687 42.5379 39.7932 42.5781 40.6148 42.5781V42.5925C40.7498 43.6992 40.7498 44.8182 40.6148 45.9249Z" fill="#121212"/>
<path d="M69.3709 42.5609C70.1925 42.5609 71.0142 42.5264 71.8329 42.5609C72.9015 42.6126 73.5393 43.2676 73.5393 44.2328C73.5393 45.1981 72.9015 45.853 71.8329 45.9076C71.017 45.9507 70.1925 45.9076 69.3738 45.9076V45.8904C69.2445 44.7853 69.2445 43.6689 69.3738 42.5638L69.3709 42.5609Z" fill="#121212"/>
<path d="M84.8808 65.1004L91.9736 65.1665C91.9671 65.2055 91.9575 65.2439 91.9449 65.2814L84.9038 65.3043C84.8861 65.2379 84.8783 65.1691 84.8808 65.1004Z" fill="#D7D6D5"/>
<path d="M53.2577 62.5006C53.2749 65.5773 53.3008 68.6568 53.3036 71.7335C53.3036 78.4988 53.2893 85.267 53.3266 92.0323C53.3266 92.851 53.1083 93.032 52.3183 93.0263C47.4863 92.986 42.6515 93.0004 37.8196 93.0263C37.245 93.0263 36.9204 93.0263 36.9204 92.2592C36.952 82.4144 36.9434 72.5695 36.9491 62.7246C36.954 62.653 36.9646 62.582 36.9807 62.512C37.3858 62.1242 37.9 62.1702 38.3913 62.1673C42.8766 62.1673 47.3609 62.1673 51.8443 62.1673C52.3384 62.1587 52.8584 62.1214 53.2577 62.5006Z" fill="#F5F5F5"/>
<path d="M70.0317 92.9688C65.8173 92.9688 61.6002 92.9889 57.3916 93.0119C56.9406 93.0119 56.6734 92.9746 56.6763 92.3971C56.7069 82.4383 56.7261 72.4728 56.7338 62.5006C57.1446 62.1214 57.6588 62.1587 58.1558 62.1558C61.3387 62.1558 64.5227 62.1558 67.7076 62.1558C68.1731 62.1432 68.6379 62.2004 69.0865 62.3253C69.439 62.4058 69.7548 62.6009 69.9845 62.8801C70.2143 63.1592 70.345 63.5066 70.3563 63.868C70.385 64.2615 70.3879 64.6551 70.3879 65.0487C70.3879 73.7397 70.3879 82.4316 70.3879 91.1245C70.3821 91.7508 70.5143 92.4259 70.0317 92.9688Z" fill="#F5F5F5"/>
<path d="M70.0319 92.9688V64.3391C70.0319 62.8798 69.6555 62.5034 68.0928 62.4977C64.3036 62.4833 60.5174 62.4977 56.7282 62.4977C56.53 59.6623 56.53 59.6594 59.3453 59.6652L73.0396 59.6996C73.0396 70.4705 73.0463 81.2423 73.0597 92.0151C73.0597 92.8166 72.8701 93.101 72.06 93.009C71.3964 92.943 70.7098 92.9832 70.0319 92.9688Z" fill="#D7D6D5"/>
<path d="M53.2576 62.5006H36.9807C36.9807 61.5698 36.9577 60.6419 36.9434 59.7111C42.4016 59.6163 47.8598 59.6278 53.3007 59.7111L53.2576 62.5006Z" fill="#D7D6D5"/>
<path d="M40.6265 45.9076V42.5753C40.9453 43.6632 40.9453 44.8197 40.6265 45.9076Z" fill="#A4022D"/>
<path d="M69.3623 42.5781V45.9048C69.0491 44.818 69.0491 43.6649 69.3623 42.5781Z" fill="#A4022D"/>
<path d="M49.6696 75.5169C49.6696 76.0168 49.7012 76.5195 49.6696 77.0165C49.6548 77.4318 49.4817 77.8256 49.1856 78.1172C48.8896 78.4088 48.4932 78.5759 48.0777 78.5844C47.6623 78.5929 47.2594 78.4419 46.9517 78.1627C46.6441 77.8834 46.455 77.4969 46.4234 77.0826C46.353 76.0122 46.353 74.9384 46.4234 73.868C46.4923 72.9688 47.1215 72.4833 48.0063 72.4172C48.4219 72.4 48.8276 72.5471 49.1356 72.8266C49.4437 73.1062 49.6293 73.4957 49.6523 73.9111C49.7012 74.4425 49.6523 74.9826 49.6523 75.5169H49.6696Z" fill="#A4022D"/>
<path d="M63.5879 75.4623C63.5879 75.9622 63.6167 76.4621 63.5879 76.9619C63.5782 77.3953 63.3993 77.8077 63.0896 78.111C62.7799 78.4142 62.3638 78.5844 61.9304 78.585C61.5145 78.5837 61.1155 78.4209 60.8175 78.1309C60.5195 77.8409 60.3458 77.4465 60.3331 77.0309C60.2843 75.9967 60.2814 74.9567 60.3331 73.9254C60.354 73.5099 60.5361 73.1189 60.8409 72.8356C61.1456 72.5523 61.5489 72.3991 61.9648 72.4086C62.3801 72.4179 62.7768 72.5828 63.0763 72.8706C63.3758 73.1584 63.5564 73.5482 63.5822 73.9628C63.6195 74.4569 63.5851 74.9682 63.5879 75.4623Z" fill="#A4022D"/>
</svg>
