<svg width="49" height="95" viewBox="0 0 49 95" fill="none" xmlns="http://www.w3.org/2000/svg">
<path d="M27.581 59.8076C27.5979 59.793 27.6073 59.7743 27.6073 59.7549C27.6073 59.7356 27.5979 59.7169 27.581 59.7023C27.1953 59.2488 26.5749 59.349 26.0015 59.344C23.7513 59.3214 21.5011 59.344 19.2509 59.344C18.8753 59.344 18.4997 59.359 18.1275 59.3315C17.554 59.2889 16.8498 59.3164 16.8431 58.7C16.8364 58.0835 17.5406 58.0735 18.1174 58.066C20.6996 58.0259 23.2818 58.066 25.8673 58.0409C26.4642 58.0409 27.1417 58.1562 27.5776 57.6851C27.5936 57.6697 27.6024 57.6507 27.6024 57.6312C27.6024 57.6117 27.5936 57.5927 27.5776 57.5773C27.1014 57.2391 26.4978 57.2817 25.9176 57.2791C23.7446 57.2791 21.5581 57.2791 19.3984 57.2791C18.0939 57.2791 17.9866 57.1864 17.9732 56.1941C17.9564 54.6004 17.9732 53.0091 17.9732 51.4154C17.9732 50.9819 18.0269 50.5384 17.7318 50.1324C17.2891 49.7565 16.6788 49.8142 16.1087 49.8041C14.8209 49.7816 13.5298 49.8217 12.2421 49.7841C11.6284 49.764 11.0382 49.6638 11.0214 49.0799C11.0047 48.4961 11.5882 48.3633 12.1985 48.3282C13.4829 48.2555 14.774 48.3282 16.0617 48.2931C16.6352 48.2806 17.2388 48.3407 17.7083 47.9949C17.8488 47.8391 17.9268 47.6565 17.933 47.4687C17.9665 45.1783 18.0973 42.8854 17.8659 40.5976C16.4071 39.7406 16.7022 38.8785 17.8659 38.014C18.0973 36.1772 17.933 34.3354 17.9699 32.5011C18 31.0703 17.9699 31.0678 19.9484 31.0653C21.927 31.0627 23.9558 31.0653 25.9579 31.0653C26.5414 31.0653 27.1383 31.0928 27.6346 30.7946L27.8425 30.6618C27.4468 30.2133 26.8164 30.311 26.2563 30.306C23.929 30.2859 21.5983 30.306 19.2677 30.306C18.8921 30.306 18.5165 30.321 18.1442 30.306C17.5708 30.2634 16.8699 30.2859 16.8632 29.672C16.8565 29.0581 17.5574 29.0455 18.1308 29.038C20.7097 28.9979 23.2918 29.038 25.8707 29.0129C26.471 29.0129 27.1416 29.1207 27.5944 28.6721C27.6076 28.6536 27.6145 28.633 27.6145 28.612C27.6145 28.591 27.6076 28.5704 27.5944 28.5519C27.1215 28.2136 26.5179 28.2587 25.9411 28.2537C23.8183 28.2537 21.6956 28.2537 19.5695 28.2537C18.0939 28.2537 18.0202 28.176 17.9833 27.096C17.9229 25.1689 18.1208 23.2394 17.876 21.3174C17.7888 21.2122 17.933 21.3325 17.8357 21.2297C16.6855 19.9968 16.6855 19.9968 17.8659 18.7238C17.99 16.2656 18.2013 13.8073 17.7485 11.3541C17.3126 10.9707 16.7022 11.0308 16.1322 11.0183C14.8478 10.9957 13.56 11.0383 12.2723 10.9957C11.7324 10.9782 11.1254 10.9406 11.0784 10.3943C11.0315 9.84806 11.5815 9.63005 12.1885 9.5674C13.4661 9.43459 14.7572 9.54235 16.0416 9.50225C16.6486 9.48471 17.3092 9.57743 17.7687 9.14141C18.2381 7.28456 17.9967 5.41267 17.9129 3.5458C17.8827 2.83664 17.0879 2.78151 16.3401 2.77901C13.7478 2.77901 11.1556 2.77901 8.56333 2.77901C6.26619 2.77901 3.9657 2.76648 1.66856 2.77901C0.250034 2.77901 0.156139 2.86421 0.156139 3.8866C0.156139 33.6513 0.149433 63.416 0.136019 93.1807C0.136019 93.8573 0.323814 94.0929 1.29968 94.0853C6.39698 94.0469 11.4965 94.0469 16.5983 94.0853C17.6043 94.0853 18 93.8122 17.9799 93.1231C17.9397 91.82 18.218 90.5045 17.7854 89.2114C17.3864 88.7804 16.7794 88.8406 16.1959 88.828C14.9014 88.803 13.607 88.8431 12.3125 88.808C11.7055 88.7904 11.0818 88.7228 11.0416 88.1339C10.9946 87.4899 11.6452 87.3821 12.2991 87.3446C13.55 87.2844 14.8042 87.3446 16.0584 87.3145C16.6318 87.3145 17.2388 87.3646 17.715 87.0213C17.8734 86.8375 17.9573 86.6234 17.9564 86.4049C17.9564 84.0869 18.0906 81.769 17.8927 79.4536C17.8829 79.3918 17.8567 79.3322 17.8156 79.2782C16.6989 78.0252 16.6989 78.0252 17.8558 76.875C18.057 74.4734 18.057 72.0648 17.8558 69.6631C16.3736 68.8086 16.7324 67.9541 17.8558 67.0996C18.0906 65.2027 17.9129 63.3032 17.9632 61.4038C17.9933 60.2035 18.0436 60.1509 19.6734 60.1509C21.7559 60.1509 23.8418 60.1509 25.9243 60.1509C26.5011 60.0982 27.1048 60.1408 27.581 59.8076Z" fill="#A4022D"/>
<path d="M17.5767 89.0933C17.5767 90.4364 17.5432 91.7796 17.5767 93.1227C17.5767 93.7116 17.3822 93.9496 16.5271 93.9446C11.4298 93.9196 6.33133 93.9196 1.23179 93.9446C0.447077 93.9446 0.165386 93.7366 0.249224 93.1803C0.260958 93.0243 0.260958 92.8678 0.249224 92.7117V4.25959C0.249224 3.00666 0.249224 2.99413 1.92597 2.99413C6.73487 2.99413 11.5404 3.01167 16.346 2.99413C17.2581 2.99413 17.6002 3.15701 17.5767 3.8787C17.5096 5.65787 17.5532 7.43954 17.5532 9.21871C17.9154 9.46929 18.3782 9.48934 18.8342 9.49185C21.3225 9.51022 23.8108 9.51022 26.2991 9.49185C26.7518 9.49185 27.218 9.49185 27.5835 9.22372L27.6271 5.75309C27.8711 5.5391 27.9917 5.26157 27.9624 4.98128C27.9993 3.59804 28.006 2.22483 27.9624 0.829056C27.9761 0.69156 27.9506 0.553459 27.8876 0.423871C27.8246 0.294283 27.7255 0.176158 27.5969 0.0772957C27.5196 0.0499383 27.4326 0.0420257 27.3488 0.0547429C26.7988 0.500788 26.9799 1.09718 26.9564 1.64096C26.9329 2.18473 26.6143 2.50548 25.8263 2.50548C25.4104 2.50548 24.9946 2.50548 24.5788 2.50548C17.0781 2.50548 9.57862 2.50548 2.08022 2.50548C1.38605 2.50548 0.648285 2.39773 0.0681324 2.80368C0.0681324 3.14698 0.0312443 3.49029 0.0312443 3.83359V92.9072C0.0312443 94.115 0.0312481 94.115 1.65434 94.115C9.89385 94.115 18.13 94.115 26.3695 94.1376C27.3253 94.1376 27.6942 93.9847 27.6472 93.2154C27.56 91.8422 27.6271 90.459 27.6271 89.0908C27.2582 88.76 26.7384 88.77 26.2421 88.7675C23.8164 88.7475 21.393 88.7475 18.9717 88.7675C18.462 88.77 17.9422 88.76 17.5767 89.0933Z" fill="#A4022D"/>
<path d="M27.6106 0.0579971C27.6106 1.95243 27.6218 3.84687 27.6441 5.74131C34.3276 5.74131 41.0145 5.74131 47.698 5.76386C48.5967 5.76386 48.969 5.61601 48.9321 4.88179C48.855 3.50858 48.8717 2.13536 48.9321 0.752123C48.9321 0.175773 48.6672 0.0229149 47.926 0.0254208C41.1453 0.0504795 34.3779 0.0504795 27.6106 0.0579971Z" fill="#D7D6D5"/>
<path d="M17.5699 79.1231V86.999C17.9052 87.2747 18.3881 87.2872 18.8442 87.2922C21.3392 87.3123 23.8342 87.3123 26.3292 87.2922C26.7819 87.2922 27.2514 87.2772 27.6035 87.0041V79.1206C27.248 78.8475 26.7819 78.8349 26.3258 78.8324C23.8308 78.8124 21.337 78.8124 18.8442 78.8324C18.3881 78.8349 17.922 78.8475 17.5699 79.1231Z" fill="#A4022D"/>
<path d="M17.5736 11.2988V18.9066C17.9425 19.2374 18.4623 19.2273 18.9586 19.2323C21.3798 19.2491 23.801 19.2491 26.2223 19.2323C26.7186 19.2323 27.2283 19.2323 27.6106 18.9116C27.6106 16.3706 27.6106 13.8289 27.6106 11.2862C27.2752 10.9505 26.7387 10.958 26.2491 10.9555C23.81 10.9354 21.3709 10.9354 18.9318 10.9555C18.4388 10.9605 17.919 10.9505 17.5736 11.2988Z" fill="#A4022D"/>
<path d="M17.574 40.3447C17.574 42.8957 17.574 45.4467 17.574 47.9976C17.9094 48.2758 18.3923 48.2883 18.8484 48.2908C21.3434 48.3109 23.8383 48.3109 26.3333 48.2908C26.7861 48.2908 27.2555 48.2758 27.6077 48.0026V40.3447C27.2421 40.0114 26.719 40.0214 26.2227 40.0164C23.797 39.9997 21.3724 39.9997 18.949 40.0164C18.4627 40.0214 17.9396 40.0114 17.574 40.3447Z" fill="#A4022D"/>
<path d="M17.5742 69.4125V77.0303C17.9397 77.3636 18.4628 77.3536 18.9592 77.3561C21.3804 77.3728 23.8038 77.3728 26.2295 77.3561C26.7258 77.3561 27.2356 77.3561 27.6145 77.0329V69.4125C27.249 69.0792 26.7258 69.0918 26.2295 69.0867C23.8038 69.07 21.3793 69.07 18.9558 69.0867C18.4628 69.0842 17.9397 69.0717 17.5742 69.4125Z" fill="#A4022D"/>
<path d="M0.0538826 2.8166C8.5628 2.8166 17.0706 2.8166 25.5773 2.8166C27.5692 2.8166 27.3412 2.95693 27.358 1.44338C27.358 0.974783 27.358 0.508691 27.358 0.0400939L3.08879 0C-0.0299549 0 -0.0299549 0 0.00693321 2.3505C0.0102863 2.50587 0.0371151 2.66123 0.0538826 2.8166Z" fill="#A4022D"/>
<path d="M17.5707 21.0071C17.5707 23.1898 17.6042 25.3749 17.5506 27.5575C17.5506 28.2767 17.7786 28.5398 18.8014 28.5222C21.7223 28.4721 24.6465 28.5072 27.5708 28.5072C27.5708 26.0013 27.5831 23.5005 27.6077 21.0046C27.2723 20.724 26.7928 20.7115 26.3367 20.7089C23.8372 20.6856 21.3389 20.6856 18.8416 20.7089C18.3856 20.7115 17.9161 20.724 17.5707 21.0071Z" fill="#A4022D"/>
<path d="M17.5742 50.0919C17.5742 52.3046 17.601 54.5173 17.554 56.73C17.554 57.3865 17.8257 57.587 18.6976 57.577C21.6554 57.5444 24.6165 57.5644 27.5776 57.577C27.5776 55.0845 27.5899 52.592 27.6145 50.0995C27.2456 49.7712 26.7225 49.7812 26.2295 49.7762C23.8038 49.7595 21.3804 49.7595 18.9592 49.7762C18.4628 49.7712 17.9397 49.7612 17.5742 50.0919Z" fill="#A4022D"/>
<path d="M27.5799 59.8074C24.6691 59.8074 21.7583 59.8425 18.8608 59.7899C17.7911 59.7723 17.5396 60.0405 17.5597 60.7922C17.6167 62.9648 17.5597 65.1399 17.5597 67.3075C17.9185 67.5756 18.3846 67.5856 18.8407 67.5906C21.3312 67.6073 23.8229 67.6073 26.3156 67.5906C26.7717 67.5906 27.2379 67.5756 27.5967 67.3075C27.59 64.815 27.5844 62.3149 27.5799 59.8074Z" fill="#A4022D"/>
<path d="M27.6233 30.7699C24.6253 30.7699 21.6273 30.7699 18.6259 30.7373C17.811 30.7373 17.5461 30.9277 17.5561 31.5392C17.593 33.7794 17.5561 36.0197 17.5561 38.2624C17.9149 38.5281 18.3811 38.5381 18.8372 38.5431C21.3277 38.5598 23.8193 38.5598 26.3121 38.5431C26.7682 38.5431 27.2309 38.5281 27.5898 38.2624C27.6054 35.7649 27.6166 33.2674 27.6233 30.7699Z" fill="#A4022D"/>
<path d="M17.5737 50.0923H27.614C28.325 49.972 28.8246 49.7064 28.8649 49.1025C28.9118 48.4284 28.3015 48.1928 27.604 48.0049H17.5703C15.7863 48.0174 13.9989 48.0324 12.2048 48.04C11.2255 48.04 10.4341 48.2229 10.471 49.1125C10.5113 49.9519 11.2826 50.0772 12.2081 50.0747C14.0022 50.0597 15.7896 50.0822 17.5737 50.0923Z" fill="#D7D6D5"/>
<path d="M27.604 87.0039H17.5703C15.7863 87.0164 13.9989 87.0315 12.2048 87.0365C11.2255 87.0365 10.4308 87.2194 10.471 88.1115C10.5113 88.951 11.2826 89.0763 12.2081 89.0712C13.9955 89.0712 15.7796 89.0888 17.5737 89.0988H27.614C28.325 88.976 28.8246 88.7104 28.8649 88.0965C28.9118 87.4249 28.3015 87.2044 27.604 87.0039Z" fill="#D7D6D5"/>
<path d="M17.5737 11.2986L27.6107 11.276C28.3451 11.1783 28.8179 10.8976 28.8649 10.2937C28.9219 9.61213 28.2814 9.39663 27.6006 9.20117H17.5703C15.8153 9.21287 14.0603 9.22372 12.3053 9.23375C11.8023 9.19698 11.2987 9.29953 10.8902 9.52192C10.6882 9.66031 10.5478 9.84161 10.4878 10.0414C10.4279 10.2412 10.4513 10.45 10.5548 10.6395C10.7359 11.0906 11.2255 11.246 11.8157 11.251C13.7339 11.2677 15.6532 11.2835 17.5737 11.2986Z" fill="#D7D6D5"/>
<path d="M17.5709 21.0062H27.6079C28.3222 20.8283 28.9057 20.5777 28.8655 19.9086C28.8319 19.2997 28.3054 19.0516 27.6113 18.9062H17.5743C16.8332 19.0366 16.2899 19.2997 16.2899 19.9487C16.2899 20.5977 16.8566 20.8483 17.5709 21.0062Z" fill="#D7D6D5"/>
<path d="M27.6009 38.2617H17.5673C16.8295 38.4522 16.2259 38.7103 16.2863 39.4144C16.3466 40.0233 16.8798 40.2388 17.574 40.3441H27.6143C28.3421 40.2363 28.8216 39.9632 28.8652 39.3593C28.9189 38.6777 28.2918 38.4547 27.6009 38.2617Z" fill="#D7D6D5"/>
<path d="M27.6037 67.3223H17.5667C16.8289 67.5127 16.2253 67.7708 16.2856 68.475C16.346 69.0864 16.8826 69.2994 17.5734 69.4072H27.6137C28.3347 69.2944 28.821 69.0238 28.8646 68.4198C28.9149 67.7407 28.2945 67.5127 27.6037 67.3223Z" fill="#D7D6D5"/>
<path d="M27.6141 77.0332H17.5737C16.903 77.146 16.3463 77.354 16.286 77.9679C16.2189 78.6745 16.836 78.9276 17.5704 79.1256H27.604C28.2948 78.9352 28.9119 78.7046 28.8649 78.028C28.8113 77.4316 28.3284 77.151 27.6141 77.0332Z" fill="#D7D6D5"/>
<path d="M27.5876 57.6748C24.375 57.6898 21.1612 57.704 17.9463 57.7174C17.2488 57.7174 16.6049 57.755 16.34 58.3664C16.0382 59.1182 16.6183 59.6444 17.829 59.6494C20.7498 59.662 23.6741 59.6494 26.5983 59.6494C26.9337 59.6494 27.269 59.682 27.6044 59.697C28.3287 59.5968 28.8452 59.3412 28.872 58.7298C28.8921 58.0782 28.3757 57.7876 27.5876 57.6748Z" fill="#D7D6D5"/>
<path d="M27.5837 28.627C24.3744 28.6395 21.1618 28.657 17.9525 28.662C17.2449 28.662 16.5943 28.7122 16.3428 29.3111C16.0276 30.0628 16.6178 30.589 17.8217 30.5966C20.6588 30.6091 23.4958 30.5966 26.3329 30.5966C26.8325 30.5966 27.3389 30.6191 27.8319 30.6316C28.526 30.4537 28.9218 30.1179 28.8614 29.5441C28.801 28.9703 28.298 28.7122 27.5837 28.627Z" fill="#D7D6D5"/>
<path d="M7.8276 54.9241C7.8276 50.5814 7.8276 46.2387 7.8276 41.8935C7.8276 41.0992 7.49226 40.4877 6.48621 40.1394C6.10694 39.9988 5.67952 39.9475 5.26041 39.9923C4.84129 40.037 4.45019 40.1757 4.13877 40.39C3.46807 40.7985 3.30375 41.3798 3.30039 41.9913C3.30039 43.2116 3.30039 44.4295 3.30039 45.6473C3.30039 52.9578 3.30039 60.2682 3.30039 67.5787C3.30039 68.9544 4.00128 69.6936 5.34267 69.7713C6.85509 69.8615 7.79742 69.1875 7.80078 67.942C7.83766 63.6094 7.8276 59.2667 7.8276 54.9241Z" fill="#F5F5F5"/>
</svg>
