<svg width="40" height="40" viewBox="0 0 40 40" fill="none" xmlns="http://www.w3.org/2000/svg">
<path d="M39.9307 17.8846C39.6934 15.307 38.9203 12.8816 37.7178 10.5948C36.4043 8.10306 34.5863 5.91839 32.3818 4.18282C30.1773 2.44724 27.6358 1.19961 24.9225 0.521045C22.9428 0.0207454 20.9312 -0.000100408 18.9103 0.0468027C17.2289 0.087452 15.6136 0.428281 14.0345 0.951511C10.5092 2.09379 7.37643 4.22125 4.99917 7.08748C2.92664 9.56605 1.55184 12.3938 0.809735 15.5467C0.588859 16.4848 0.500085 17.4333 0.412354 18.3859V21.5837C0.508342 22.3393 0.515568 23.1033 0.67142 23.8538C1.6086 28.4586 3.82666 32.3078 7.3803 35.3513C10.2338 37.8193 13.7369 39.3954 17.4622 39.8873C17.8534 39.9415 18.2528 39.9082 18.6419 39.9916H21.5773C21.603 39.9725 21.6323 39.9591 21.6634 39.9523C21.6946 39.9454 21.7268 39.9453 21.7579 39.952C23.2545 39.9603 24.6985 39.6393 26.1084 39.1807C29.2595 38.154 32.0143 36.4832 34.3489 34.0818C36.462 31.9181 38.0586 29.2963 39.0173 26.4157C39.5664 24.7887 39.9214 23.119 39.9689 21.3835C39.9958 20.2203 40.0381 19.0436 39.9307 17.8846ZM30.0666 24.0039C30.0594 27.3757 27.4615 30.0002 24.1195 30.0085C21.4944 30.0148 18.8693 30.0148 16.2443 30.0085C12.9053 29.9991 10.3033 27.3694 10.2981 24.0028C10.294 21.3512 10.294 18.7 10.2981 16.0491C10.2981 12.6815 12.9043 10.057 16.2453 10.0455C17.5706 10.0455 18.8958 10.0455 20.2221 10.0455C21.5216 10.0455 22.821 10.0455 24.1215 10.0455C27.4615 10.057 30.0594 12.6794 30.0666 16.0512C30.0728 18.7021 30.0728 21.353 30.0666 24.0039Z" fill="#A4022D"/>
<path d="M28.0726 16.0825C28.0551 13.7405 26.3903 12.0686 24.0711 12.0634C21.4852 12.0593 18.8994 12.0593 16.3135 12.0634C13.9706 12.0634 12.3027 13.7373 12.2882 16.1023C12.2793 18.7129 12.2793 21.3238 12.2882 23.9351C12.2954 26.3043 13.9499 27.9844 16.2898 27.9938C18.8756 28.0042 21.4615 28.0042 24.0473 27.9938C26.4119 27.9865 28.0582 26.3115 28.0726 23.9153C28.0788 22.6166 28.0726 21.3179 28.0726 20.0182C28.0726 18.7185 28.0819 17.3937 28.0726 16.0825ZM20.1944 25.1838C19.1818 25.1866 18.1912 24.8855 17.3486 24.3185C16.5059 23.7516 15.8491 22.9445 15.4617 21.9998C15.0743 21.0551 14.9737 20.0154 15.1727 19.0128C15.3718 18.0102 15.8615 17.09 16.5796 16.3691C17.2977 15.6482 18.2118 15.1591 19.2057 14.964C20.1997 14.7689 21.2287 14.8766 22.1619 15.2734C23.0951 15.6702 23.8905 16.3382 24.4469 17.1925C25.0033 18.0468 25.2957 19.0489 25.2869 20.0714C25.2795 21.4302 24.7397 22.7308 23.7854 23.6888C22.8311 24.6469 21.54 25.1844 20.1944 25.1838ZM25.3158 16.1325C25.1484 16.1319 24.9829 16.0977 24.8287 16.0319C24.6746 15.9661 24.5349 15.8701 24.4177 15.7494C24.3006 15.6287 24.2084 15.4857 24.1464 15.3287C24.0844 15.1717 24.0539 15.0039 24.0566 14.8349C24.0699 14.5 24.2129 14.1838 24.4548 13.9543C24.6967 13.7248 25.0181 13.6003 25.3499 13.6077C25.6817 13.6151 25.9974 13.7537 26.229 13.9937C26.4606 14.2337 26.5897 14.556 26.5884 14.8912C26.5801 15.2253 26.4419 15.5428 26.2038 15.775C25.9657 16.0072 25.6468 16.1356 25.3158 16.1325Z" fill="#A4022D"/>
<path d="M20.1747 16.8851C19.5594 16.8867 18.9584 17.0722 18.4473 17.4182C17.9363 17.7642 17.538 18.2551 17.3028 18.8292C17.0675 19.4033 17.0058 20.0349 17.1253 20.6444C17.2449 21.2538 17.5403 21.814 17.9745 22.2542C18.4087 22.6944 18.9622 22.995 19.5653 23.1181C20.1683 23.2412 20.794 23.1814 21.3634 22.9461C21.9329 22.7108 22.4206 22.3106 22.7652 21.7958C23.1098 21.2811 23.2959 20.675 23.2999 20.0537C23.3045 19.6373 23.2268 19.2243 23.0715 18.8386C22.9162 18.4529 22.6864 18.1024 22.3954 17.8074C22.1045 17.5124 21.7583 17.2789 21.377 17.1206C20.9956 16.9622 20.5869 16.8822 20.1747 16.8851Z" fill="#A4022D"/>
</svg>
