<svg width="41" height="40" viewBox="0 0 41 40" fill="none" xmlns="http://www.w3.org/2000/svg">
<path d="M40.2891 17.8491C40.0549 15.2819 39.2746 12.8753 38.0824 10.5958C36.9606 8.45452 35.4595 6.53909 33.6536 4.94449C31.226 2.78278 28.4237 1.32983 25.285 0.521008C23.035 -0.058506 20.7436 -0.0730981 18.4626 0.0842879C16.0753 0.250012 13.8128 0.974405 11.6784 2.05839C9.02231 3.40222 6.69665 5.32761 4.87092 7.69422C3.04518 10.0608 1.76538 12.809 1.1248 15.7385C0.931788 16.6129 0.86057 17.502 0.774902 18.389V21.6649C0.85128 22.0454 0.819282 22.4362 0.869857 22.8187C1.2167 25.3884 2.06348 27.8634 3.36143 30.1012C4.74919 32.4987 6.61082 34.5821 8.83044 36.2216C11.0501 37.8611 13.5801 39.0216 16.2631 39.6309C17.1652 39.8394 18.0838 39.9165 19.0034 39.9926H21.9378C22.3806 39.9269 22.8316 39.9582 23.2734 39.9019C25.4997 39.6114 27.6575 38.925 29.6468 37.8746C31.6488 36.8246 33.4606 35.4404 35.0056 33.7805C36.6382 32.0405 37.9459 30.0168 38.8658 27.8071C39.7194 25.7736 40.2633 23.6578 40.3284 21.4273C40.3624 20.2328 40.3975 19.0363 40.2891 17.8491ZM15.5262 23.1471C15.5262 25.069 15.5262 26.9921 15.5262 28.9141C15.5262 29.1965 15.487 29.3153 15.1608 29.307C14.1204 29.283 13.0779 29.2914 12.0365 29.307C11.8095 29.307 11.7269 29.2653 11.7269 29.0131C11.7351 25.0913 11.7351 21.1691 11.7269 17.2467C11.7269 16.9777 11.8146 16.9288 12.0551 16.934C13.0872 16.9454 14.1121 16.9496 15.1412 16.934C15.4322 16.934 15.5293 16.9913 15.5272 17.3102C15.5179 19.251 15.5262 21.199 15.5262 23.1471ZM13.593 15.3215C13.296 15.32 13.0022 15.2595 12.7284 15.1433C12.4546 15.0272 12.2062 14.8577 11.9973 14.6446C11.7883 14.4314 11.623 14.1788 11.5107 13.9012C11.3985 13.6236 11.3414 13.3263 11.3429 13.0264C11.3444 12.7265 11.4044 12.4299 11.5194 12.1534C11.6344 11.8769 11.8023 11.626 12.0133 11.415C12.2244 11.204 12.4745 11.037 12.7494 10.9237C13.0244 10.8103 13.3187 10.7527 13.6157 10.7542C14.2155 10.7573 14.7895 11.0008 15.2114 11.4312C15.6334 11.8616 15.8688 12.4437 15.8657 13.0493C15.8627 13.655 15.6216 14.2347 15.1954 14.6608C14.7691 15.0869 14.1927 15.3246 13.593 15.3215ZM29.7211 26.1228C29.7335 27.0452 29.7025 27.9687 29.7335 28.8901C29.7459 29.2559 29.6241 29.3133 29.3021 29.307C28.3505 29.2851 27.3978 29.2799 26.4462 29.307C26.0612 29.3195 25.9301 29.2393 25.9383 28.8161C25.9642 26.842 25.9487 24.8668 25.9507 22.8917C25.9609 22.4485 25.9134 22.0059 25.8093 21.5753C25.5627 20.6289 24.996 20.1161 24.1022 20.0348C23.101 19.9441 22.2629 20.3954 21.8779 21.2397C21.6302 21.7827 21.5796 22.3633 21.5786 22.9511C21.5786 24.9388 21.5714 26.9264 21.5848 28.9151C21.5848 29.2153 21.5177 29.3091 21.207 29.3018C20.2296 29.2799 19.2522 29.2872 18.2737 29.3018C18.0384 29.3018 17.9383 29.2653 17.9393 28.9891C17.9476 25.0784 17.9476 21.1674 17.9393 17.256C17.9393 17.0028 18.0023 16.9225 18.2603 16.9256C19.2635 16.9402 20.2678 16.9423 21.271 16.9256C21.5456 16.9204 21.592 17.0246 21.5807 17.2644C21.5652 17.6625 21.5807 18.0617 21.5807 18.5808C22.3507 17.4853 23.2775 16.8089 24.482 16.6369C27.0334 16.2627 29.363 17.4447 29.6623 20.5903C29.8285 22.43 29.6964 24.279 29.7211 26.1228Z" fill="#A4022D"/>
</svg>
