<svg width="52" height="77" viewBox="0 0 52 77" fill="none" xmlns="http://www.w3.org/2000/svg">
<path d="M23.191 22.8068L22.549 33.5637C22.5472 33.5919 22.5528 33.62 22.5652 33.6455C22.5776 33.6709 22.5964 33.6927 22.6198 33.7088C22.6432 33.7249 22.6704 33.7348 22.6988 33.7374C22.7271 33.7401 22.7557 33.7354 22.7817 33.7239L36.2781 27.8661L43.502 24.7313L48.8642 22.4102C48.8906 22.3988 48.9196 22.3945 48.9483 22.3975C48.977 22.4006 49.0044 22.411 49.0278 22.4277C49.0512 22.4444 49.0699 22.4668 49.082 22.4928C49.0941 22.5187 49.0993 22.5474 49.0969 22.5759L48.4959 29.6385C48.3982 30.7872 47.9896 31.8885 47.3133 32.8259C46.6369 33.7633 45.7179 34.502 44.6533 34.964L42.9449 35.7055C42.9174 35.717 42.8937 35.7357 42.8763 35.7597C42.8589 35.7836 42.8485 35.8119 42.8463 35.8414L41.9072 51.5719C41.8535 52.4871 41.5898 53.3781 41.1362 54.1767C40.6825 54.9754 40.051 55.6607 39.2898 56.1803L34.6819 59.3164C34.6563 59.3341 34.6262 59.3442 34.5951 59.3457C34.5639 59.3472 34.533 59.34 34.5058 59.3248C34.4787 59.3096 34.4564 59.2871 34.4415 59.2599C34.4266 59.2327 34.4198 59.2019 34.4218 59.171L35.6142 39.1486C35.6158 39.1204 35.6101 39.0922 35.5977 39.0668C35.5853 39.0414 35.5665 39.0196 35.5432 39.0034C35.5199 38.9872 35.4928 38.9772 35.4645 38.9743C35.4362 38.9714 35.4076 38.9758 35.3814 38.9869L21.9658 44.8041C21.9383 44.8155 21.9146 44.8342 21.8972 44.8582C21.8798 44.8822 21.8694 44.9104 21.8672 44.9399L20.6174 65.9457C20.5604 66.9002 20.2841 67.8291 19.8095 68.6613C19.335 69.4935 18.6748 70.2069 17.8795 70.7469L8.73495 76.9702C8.70937 76.9879 8.67928 76.998 8.64813 76.9995C8.61698 77.001 8.58604 76.9938 8.55887 76.9786C8.53169 76.9634 8.50939 76.9409 8.49453 76.9137C8.47966 76.8865 8.47284 76.8557 8.47485 76.8248L10.0792 49.9638L10.7363 38.9516L11.3839 28.0942C11.3855 28.066 11.3798 28.0379 11.3674 28.0125C11.355 27.9871 11.3362 27.9653 11.3129 27.9491C11.2896 27.9329 11.2625 27.9229 11.2342 27.92C11.2059 27.9171 11.1773 27.9215 11.1511 27.9326L0.233805 32.6686C0.203952 32.682 0.170774 32.6863 0.138463 32.681C0.106153 32.6756 0.0761607 32.6609 0.0522788 32.6387C0.0283969 32.6164 0.0116972 32.5877 0.00429051 32.556C-0.00311614 32.5243 -0.000897147 32.4912 0.010667 32.4608L2.72802 24.4624C3.18113 23.1301 3.91001 21.9064 4.86785 20.87C5.8257 19.8336 6.99137 19.0074 8.29004 18.4443L12.056 16.8144L23.8522 11.6968L37.6032 5.72616L44.8285 2.59145L50.7684 0.0136045C50.7948 0.00224836 50.8238 -0.00211085 50.8525 0.000951447C50.8812 0.00401374 50.9086 0.0143931 50.932 0.0310787C50.9554 0.0477642 50.9741 0.070187 50.9862 0.096163C50.9983 0.122139 51.0035 0.150783 51.0011 0.179304L50.6192 4.66949C50.4551 6.59695 49.7695 8.44469 48.6345 10.0175C47.4996 11.5903 45.9576 12.8298 44.1714 13.605L36.9461 16.7397L23.2896 22.6655C23.2613 22.6774 23.237 22.6969 23.2196 22.722C23.2021 22.747 23.1922 22.7764 23.191 22.8068Z" fill="#A4022D"/>
</svg>
