<svg width="27" height="26" viewBox="0 0 27 26" fill="none" xmlns="http://www.w3.org/2000/svg">
<path d="M20.1 5.06691C18.8939 5.06691 17.7722 5.41541 16.8 5.99987V5.34129C16.8 4.13021 17.2577 2.99257 18.089 2.13611L16.5334 0.533691C15.3391 1.76449 14.5999 3.46449 14.5999 5.34163V6.00021C13.628 5.41575 12.5051 5.06725 11.2979 5.06725C9.34695 5.06725 7.59696 5.94615 6.3885 7.33403H3.6V7.33505C1.77807 7.33505 0.300003 8.85689 0.300003 10.734V17.5347C0.300003 19.4132 1.77807 20.9347 3.6 20.9347H6.91617C8.92389 23.6819 12.1058 25.4669 15.7001 25.4669C21.7748 25.4666 26.7 20.3924 26.7 14.1337V11.8669C26.7 8.11161 23.7449 5.06691 20.1 5.06691ZM3.6 9.60115V9.60013H5.08137C4.8375 10.3101 4.69791 11.071 4.69791 11.8669V11.8679H3.6C2.99181 11.8679 2.50011 11.3603 2.50011 10.7347C2.50011 10.1091 2.99181 9.60115 3.6 9.60115ZM6.9 18.6679V16.4015H4.69989V18.6679H3.6C2.99181 18.6679 2.50011 18.1613 2.50011 17.5344L2.4978 17.5337H2.50011V13.9266C2.84595 14.0528 3.21225 14.1344 3.6 14.1344H13.5V18.6679H11.2999V16.4015H9.10011V18.6679H6.9ZM24.4999 14.1337C24.4999 19.1327 20.5521 23.2001 15.7001 23.2001C13.4776 23.2001 11.4504 22.3403 9.90036 20.9344H15.7001V11.8679H6.89769V11.8645C6.89769 9.36757 8.87208 7.33335 11.2979 7.33335C12.3783 7.33335 13.4185 7.74611 14.2293 8.49547L15.6978 9.85343L17.1683 8.49547C17.9794 7.74611 19.0202 7.33335 20.1 7.33335C22.5268 7.33335 24.4999 9.36621 24.4999 11.8666V14.1337Z" fill="#A4022D"/>
</svg>
