<svg width="18" height="18" viewBox="0 0 18 18" fill="none" xmlns="http://www.w3.org/2000/svg">
<path d="M13.4002 3.86674C12.5961 3.86674 11.8483 4.09224 11.2002 4.47042V4.04428C11.2002 3.26064 11.5053 2.52452 12.0595 1.97034L11.0224 0.933479C10.2263 1.72988 9.73345 2.82988 9.73345 4.0445V4.47064C9.08556 4.09246 8.33689 3.86696 7.53213 3.86696C6.23149 3.86696 5.06484 4.43566 4.2592 5.3337H2.4002V5.33436C1.18558 5.33436 0.200195 6.31908 0.200195 7.5337V11.9341C0.200195 13.1496 1.18558 14.1341 2.4002 14.1341H4.61097C5.94945 15.9117 8.07069 17.0667 10.4669 17.0667C14.5167 17.0665 17.8002 13.7832 17.8002 9.73348V8.26674C17.8002 5.83684 15.8301 3.86674 13.4002 3.86674ZM2.4002 6.80066V6.8H3.38778C3.2252 7.25936 3.13213 7.75172 3.13213 8.26674V8.2674H2.4002C1.99474 8.2674 1.66694 7.93894 1.66694 7.53414C1.66694 7.12934 1.99474 6.80066 2.4002 6.80066ZM4.60019 12.6674V11.2009H3.13346V12.6674H2.4002C1.99474 12.6674 1.66694 12.3396 1.66694 11.9339L1.6654 11.9335H1.66694V9.5995C1.8975 9.68112 2.1417 9.73392 2.4002 9.73392H9.00019V12.6674H7.53345V11.2009H6.06694V12.6674H4.60019ZM16.3335 9.73348C16.3335 12.9681 13.7016 15.6 10.4669 15.6C8.98523 15.6 7.63377 15.0436 6.60043 14.1339H10.4669V8.2674H4.59866V8.2652C4.59866 6.64952 5.91492 5.33326 7.53213 5.33326C8.25241 5.33326 8.94585 5.60034 9.48639 6.08522L10.4654 6.9639L11.4457 6.08522C11.9865 5.60034 12.6804 5.33326 13.4002 5.33326C15.0181 5.33326 16.3335 6.64864 16.3335 8.26652V9.73348Z" fill="#383838"/>
</svg>
