<svg width="28" height="26" viewBox="0 0 28 26" fill="none" xmlns="http://www.w3.org/2000/svg">
<g filter="url(#filter0_d_889_4841)">
<path d="M6.46809 16.4465L5.01558 24.1327C4.88613 24.8154 5.56882 25.3578 6.21583 25.1376C6.25048 25.1258 6.28502 25.1118 6.31934 25.0955C6.31944 25.0955 6.31955 25.0954 6.31966 25.0954L6.46809 16.4465ZM6.46809 16.4465L0.302835 10.993L6.46809 16.4465ZM6.10413 24.6442L6.10396 24.6435L13.7847 20.9775L14 20.8747L14.2154 20.9774L21.8993 24.6433L6.10413 24.6442ZM6.10413 24.6442C5.76939 24.802 5.45272 24.5112 5.50683 24.2259L5.50689 24.2256L6.95939 16.5393L7.01214 16.2602L6.79936 16.072L0.634462 10.6188C0.63436 10.6187 0.634258 10.6186 0.634156 10.6185C0.395086 10.4062 0.496057 9.99288 0.86281 9.945L0.863492 9.94491L9.43499 8.81391L9.68733 8.78062L9.80888 8.557L13.6308 1.52576C13.6308 1.52572 13.6309 1.52567 13.6309 1.52562C13.7863 1.24016 14.2191 1.24016 14.3745 1.52562C14.3746 1.52567 14.3746 1.52572 14.3746 1.52576L18.1965 8.557L18.3181 8.78062L18.5704 8.81391L27.1419 9.94491L27.1426 9.945C27.5094 9.99289 27.6101 10.4059 27.3698 10.6183L27.3695 10.6185L21.206 16.072L20.9933 16.2602L21.046 16.5393L22.4985 24.2256L22.4986 24.2259C22.5528 24.5117 22.235 24.8029 21.8996 24.6434L6.10413 24.6442Z" stroke="#A4022D" shape-rendering="crispEdges"/>
</g>
<defs>
<filter id="filter0_d_889_4841" x="-3.99756" y="0.811523" width="36" height="32.376" filterUnits="userSpaceOnUse" color-interpolation-filters="sRGB">
<feFlood flood-opacity="0" result="BackgroundImageFix"/>
<feColorMatrix in="SourceAlpha" type="matrix" values="0 0 0 0 0 0 0 0 0 0 0 0 0 0 0 0 0 0 127 0" result="hardAlpha"/>
<feOffset dy="4"/>
<feGaussianBlur stdDeviation="2"/>
<feComposite in2="hardAlpha" operator="out"/>
<feColorMatrix type="matrix" values="0 0 0 0 0 0 0 0 0 0 0 0 0 0 0 0 0 0 0.25 0"/>
<feBlend mode="normal" in2="BackgroundImageFix" result="effect1_dropShadow_889_4841"/>
<feBlend mode="normal" in="SourceGraphic" in2="effect1_dropShadow_889_4841" result="shape"/>
</filter>
</defs>
</svg>
