<svg width="17" height="17" viewBox="0 0 17 17" fill="none" xmlns="http://www.w3.org/2000/svg">
<path d="M5.3047 8.58724C5.98542 9.97893 7.11351 11.1019 8.50829 11.7763C8.61034 11.8246 8.72322 11.8456 8.83583 11.8371C8.94843 11.8285 9.05688 11.7908 9.15049 11.7277L11.2042 10.3582C11.295 10.2977 11.3995 10.2607 11.5082 10.2507C11.617 10.2407 11.7264 10.258 11.8268 10.301L15.6689 11.9476C15.7994 12.0031 15.9084 12.0994 15.9794 12.2222C16.0504 12.345 16.0795 12.4875 16.0625 12.6282C15.9411 13.5785 15.4774 14.4519 14.7584 15.0849C14.0393 15.718 13.1142 16.0672 12.1562 16.0672C9.19743 16.0672 6.35979 14.8918 4.26759 12.7996C2.17539 10.7074 1 7.86981 1 4.91098C1.00005 3.953 1.34928 3.02788 1.98231 2.30885C2.61533 1.58982 3.48874 1.12618 4.439 1.00474C4.57977 0.987702 4.72227 1.01688 4.84503 1.08787C4.96778 1.15886 5.06414 1.26783 5.11958 1.39834L6.76763 5.24379C6.81026 5.34326 6.82763 5.45172 6.81819 5.55953C6.80876 5.66733 6.77281 5.77113 6.71355 5.86167L5.34884 7.94689C5.28673 8.04069 5.25001 8.149 5.24227 8.26124C5.23454 8.37347 5.25604 8.4858 5.3047 8.58724V8.58724Z" stroke="#A4022D" stroke-linecap="round" stroke-linejoin="round"/>
</svg>
