<svg width="13" height="13" viewBox="0 0 13 13" fill="none" xmlns="http://www.w3.org/2000/svg">
<path d="M6.14105 6.9373C6.12975 6.9373 6.1128 6.9373 6.10151 6.9373C6.08456 6.9373 6.06196 6.9373 6.04501 6.9373C4.76262 6.89776 3.80225 5.89784 3.80225 4.66629C3.80225 3.41216 4.82476 2.38965 6.07891 2.38965C7.33304 2.38965 8.35555 3.41216 8.35555 4.66629C8.3499 5.90349 7.38388 6.89776 6.158 6.9373C6.1467 6.9373 6.1467 6.9373 6.14105 6.9373ZM6.07326 3.23139C5.28236 3.23139 4.64398 3.8754 4.64398 4.66064C4.64398 5.4346 5.24847 6.06167 6.01677 6.08991C6.03371 6.08426 6.09021 6.08426 6.1467 6.08991C6.9037 6.05037 7.49687 5.42895 7.50252 4.66064C7.50252 3.8754 6.86415 3.23139 6.07326 3.23139Z" fill="#A4022D"/>
<path d="M6.0733 12.1462C4.55366 12.1462 3.10181 11.5812 1.97761 10.5531C1.87592 10.4627 1.83073 10.3271 1.84203 10.1972C1.91547 9.52492 2.33351 8.89785 3.02837 8.43462C4.71184 7.31607 7.44042 7.31607 9.11825 8.43462C9.8131 8.9035 10.2311 9.52492 10.3046 10.1972C10.3215 10.3328 10.2707 10.4627 10.169 10.5531C9.04481 11.5812 7.59295 12.1462 6.0733 12.1462ZM2.72896 10.0842C3.66673 10.8694 4.84742 11.2988 6.0733 11.2988C7.29919 11.2988 8.47988 10.8694 9.41766 10.0842C9.31597 9.73959 9.04481 9.40629 8.64371 9.13512C7.254 8.20865 4.89827 8.20865 3.49726 9.13512C3.09616 9.40629 2.83064 9.73959 2.72896 10.0842Z" fill="#A4022D"/>
<path d="M6.07294 12.1459C2.72294 12.1459 0 9.42294 0 6.07294C0 2.72294 2.72294 0 6.07294 0C9.42294 0 12.1459 2.72294 12.1459 6.07294C12.1459 9.42294 9.42294 12.1459 6.07294 12.1459ZM6.07294 0.847387C3.19182 0.847387 0.847387 3.19182 0.847387 6.07294C0.847387 8.95405 3.19182 11.2985 6.07294 11.2985C8.95405 11.2985 11.2985 8.95405 11.2985 6.07294C11.2985 3.19182 8.95405 0.847387 6.07294 0.847387Z" fill="#A4022D"/>
</svg>
