<svg width="24" height="26" viewBox="0 0 24 26" fill="none" xmlns="http://www.w3.org/2000/svg">
<path d="M21.2818 2.61732H19.9914V0.0366211H17.4107V2.61732H7.08794V0.0366211H4.50724V2.61732H3.21689C1.79751 2.61732 0.6362 3.77863 0.6362 5.19801V23.2629C0.6362 24.6823 1.79751 25.8436 3.21689 25.8436H21.2818C22.7011 25.8436 23.8625 24.6823 23.8625 23.2629V5.19801C23.8625 3.77863 22.7011 2.61732 21.2818 2.61732ZM21.2818 23.2629H3.21689V10.3594H21.2818V23.2629ZM3.21689 7.77871V5.19801H21.2818V7.77871H3.21689ZM10.3912 21.2757L18.043 13.624L16.6752 12.2562L10.3912 18.5402L7.66859 15.8176L6.30083 17.1853L10.3912 21.2757Z" fill="#A4022D"/>
</svg>
