<svg width="15" height="17" viewBox="0 0 15 17" fill="none" xmlns="http://www.w3.org/2000/svg">
<path d="M12.6405 2.31115H11.8699V0.770035H10.3288V2.31115H4.16432V0.770035H2.6232V2.31115H1.85264C1.00503 2.31115 0.311523 3.00466 0.311523 3.85227V14.6401C0.311523 15.4877 1.00503 16.1812 1.85264 16.1812H12.6405C13.4881 16.1812 14.1816 15.4877 14.1816 14.6401V3.85227C14.1816 3.00466 13.4881 2.31115 12.6405 2.31115ZM12.6405 14.6401H1.85264V6.93451H12.6405V14.6401ZM1.85264 5.39339V3.85227H12.6405V5.39339H1.85264ZM6.13695 13.4534L10.7064 8.88402L9.88957 8.06723L6.13695 11.8199L4.51107 10.194L3.69428 11.0108L6.13695 13.4534Z" fill="#383838"/>
</svg>
