<svg width="16" height="16" viewBox="0 0 16 16" fill="none" xmlns="http://www.w3.org/2000/svg">
<path d="M6.44436 5.66602H3.33325" stroke="#F2F2F2" stroke-width="1.36" stroke-linecap="round" stroke-linejoin="round"/>
<path d="M10.7223 7.22287C9.6484 7.22287 8.77783 6.35231 8.77783 5.27843C8.77783 4.20454 9.6484 3.33398 10.7223 3.33398C11.7962 3.33398 12.6667 4.20454 12.6667 5.27843C12.6667 6.35231 11.7962 7.22287 10.7223 7.22287Z" stroke="#F2F2F2" stroke-width="1.36" stroke-linecap="round" stroke-linejoin="round"/>
<path d="M3.33325 3.33398H5.66659" stroke="#F2F2F2" stroke-width="1.36" stroke-linecap="round" stroke-linejoin="round"/>
<path d="M12.6666 12.6662L9.16659 10.3329L7.22214 11.8885L3.33325 8.77734" stroke="#F2F2F2" stroke-width="1.36" stroke-linecap="round" stroke-linejoin="round"/>
<path d="M1 14.5333V1.46667C1 1.20893 1.20893 1 1.46667 1H14.5333C14.7911 1 15 1.20893 15 1.46667V14.5333C15 14.7911 14.7911 15 14.5333 15H1.46667C1.20893 15 1 14.7911 1 14.5333Z" stroke="#F2F2F2" stroke-width="1.36"/>
</svg>
