<svg width="18" height="18" viewBox="0 0 18 18" fill="none" xmlns="http://www.w3.org/2000/svg">
<path d="M8.99135 11.658C7.25994 11.658 5.85474 10.2528 5.85474 8.52138C5.85474 6.78997 7.25994 5.38477 8.99135 5.38477C10.7228 5.38477 12.128 6.78997 12.128 8.52138C12.128 10.2528 10.7228 11.658 8.99135 11.658ZM8.99135 6.63941C7.95418 6.63941 7.10938 7.48421 7.10938 8.52138C7.10938 9.55856 7.95418 10.4034 8.99135 10.4034C10.0285 10.4034 10.8733 9.55856 10.8733 8.52138C10.8733 7.48421 10.0285 6.63941 8.99135 6.63941Z" fill="#F2F2F2"/>
<path d="M11.6766 17.0446C11.5009 17.0446 11.3253 17.0195 11.1496 16.9777C10.631 16.8355 10.1961 16.5093 9.92007 16.0493L9.8197 15.882C9.32621 15.0288 8.6487 15.0288 8.1552 15.882L8.0632 16.0409C7.78717 16.5093 7.35223 16.8439 6.83364 16.9777C6.30669 17.1199 5.76301 17.0446 5.30297 16.7686L3.86431 15.9405C3.35409 15.6478 2.98606 15.171 2.82714 14.5939C2.67658 14.0167 2.75186 13.4229 3.04461 12.9126C3.28717 12.4861 3.35409 12.1013 3.2119 11.8587C3.0697 11.6162 2.71004 11.474 2.21654 11.474C0.995353 11.474 0 10.4786 0 9.25744V7.78532C0 6.56413 0.995353 5.56878 2.21654 5.56878C2.71004 5.56878 3.0697 5.42659 3.2119 5.18402C3.35409 4.94146 3.29554 4.5567 3.04461 4.13012C2.75186 3.6199 2.67658 3.01767 2.82714 2.44889C2.9777 1.87175 3.34572 1.39499 3.86431 1.10224L5.31134 0.274171C6.25651 -0.286238 7.50279 0.03997 8.07156 1.00187L8.17193 1.16915C8.66543 2.02231 9.34294 2.02231 9.83643 1.16915L9.92844 1.01023C10.4972 0.03997 11.7435 -0.286238 12.697 0.282535L14.1357 1.1106C14.6459 1.40335 15.0139 1.88012 15.1729 2.45726C15.3234 3.03439 15.2481 3.62826 14.9554 4.13848C14.7128 4.56506 14.6459 4.94982 14.7881 5.19239C14.9303 5.43495 15.29 5.57714 15.7835 5.57714C17.0046 5.57714 18 6.5725 18 7.79369V9.26581C18 10.487 17.0046 11.4823 15.7835 11.4823C15.29 11.4823 14.9303 11.6245 14.7881 11.8671C14.6459 12.1097 14.7045 12.4944 14.9554 12.921C15.2481 13.4312 15.3318 14.0335 15.1729 14.6022C15.0223 15.1794 14.6543 15.6561 14.1357 15.9489L12.6887 16.777C12.3708 16.9526 12.0279 17.0446 11.6766 17.0446ZM8.99164 13.9498C9.73606 13.9498 10.4303 14.4182 10.9071 15.2463L10.9991 15.4052C11.0994 15.5809 11.2667 15.7063 11.4675 15.7565C11.6682 15.8067 11.869 15.7816 12.0362 15.6812L13.4833 14.8448C13.7007 14.7193 13.868 14.5102 13.9349 14.2593C14.0019 14.0084 13.9684 13.7491 13.8429 13.5316C13.3662 12.7119 13.3076 11.8671 13.6757 11.2231C14.0437 10.579 14.8048 10.211 15.7584 10.211C16.2937 10.211 16.7203 9.78439 16.7203 9.24908V7.77696C16.7203 7.25001 16.2937 6.81506 15.7584 6.81506C14.8048 6.81506 14.0437 6.44703 13.6757 5.80298C13.3076 5.15893 13.3662 4.31413 13.8429 3.49443C13.9684 3.27696 14.0019 3.01767 13.9349 2.76674C13.868 2.51581 13.7091 2.31506 13.4916 2.18123L12.0446 1.35317C11.6849 1.13569 11.2082 1.26116 10.9907 1.62919L10.8987 1.78811C10.4219 2.61618 9.72769 3.08458 8.98327 3.08458C8.23885 3.08458 7.54461 2.61618 7.06784 1.78811L6.97584 1.62082C6.76673 1.26952 6.29833 1.14406 5.93866 1.35317L4.49164 2.1896C4.27416 2.31506 4.10688 2.52417 4.03996 2.7751C3.97305 3.02603 4.00651 3.28532 4.13197 3.5028C4.60874 4.3225 4.66729 5.16729 4.29926 5.81135C3.93123 6.4554 3.17007 6.82343 2.21654 6.82343C1.68123 6.82343 1.25465 7.25001 1.25465 7.78532V9.25744C1.25465 9.78439 1.68123 10.2193 2.21654 10.2193C3.17007 10.2193 3.93123 10.5874 4.29926 11.2314C4.66729 11.8755 4.60874 12.7203 4.13197 13.54C4.00651 13.7574 3.97305 14.0167 4.03996 14.2677C4.10688 14.5186 4.2658 14.7193 4.48327 14.8532L5.9303 15.6812C6.10595 15.79 6.31506 15.8151 6.50743 15.7649C6.70818 15.7147 6.87546 15.5809 6.9842 15.4052L7.07621 15.2463C7.55297 14.4266 8.24721 13.9498 8.99164 13.9498Z" fill="#F2F2F2"/>
</svg>
