<svg width="12" height="12" viewBox="0 0 12 12" fill="none" xmlns="http://www.w3.org/2000/svg">
<path d="M5.99415 7.772C4.83988 7.772 3.90308 6.8352 3.90308 5.68092C3.90308 4.52665 4.83988 3.58984 5.99415 3.58984C7.14843 3.58984 8.08523 4.52665 8.08523 5.68092C8.08523 6.8352 7.14843 7.772 5.99415 7.772ZM5.99415 4.42627C5.3027 4.42627 4.73951 4.98947 4.73951 5.68092C4.73951 6.37237 5.3027 6.93557 5.99415 6.93557C6.6856 6.93557 7.2488 6.37237 7.2488 5.68092C7.2488 4.98947 6.6856 4.42627 5.99415 4.42627Z" fill="#A4022D"/>
<path d="M7.78439 11.3631C7.66729 11.3631 7.55019 11.3463 7.43309 11.3185C7.08736 11.2237 6.7974 11.0062 6.61338 10.6995L6.54647 10.588C6.21747 10.0192 5.7658 10.0192 5.4368 10.588L5.37546 10.6939C5.19145 11.0062 4.90149 11.2292 4.55576 11.3185C4.20446 11.4133 3.84201 11.3631 3.53532 11.1791L2.57621 10.627C2.23606 10.4319 1.99071 10.114 1.88476 9.72925C1.78439 9.34449 1.83457 8.94858 2.02974 8.60843C2.19145 8.32404 2.23606 8.06754 2.14126 7.90583C2.04647 7.74412 1.80669 7.64932 1.4777 7.64932C0.663569 7.64932 0 6.98575 0 6.17163V5.19022C0 4.37609 0.663569 3.71252 1.4777 3.71252C1.80669 3.71252 2.04647 3.61772 2.14126 3.45601C2.23606 3.2943 2.19703 3.0378 2.02974 2.75341C1.83457 2.41326 1.78439 2.01178 1.88476 1.63259C1.98513 1.24784 2.23048 0.929992 2.57621 0.734825L3.54089 0.182781C4.171 -0.190825 5.00186 0.0266467 5.38104 0.667911L5.44796 0.779435C5.77695 1.34821 6.22862 1.34821 6.55762 0.779435L6.61896 0.673487C6.99814 0.0266467 7.829 -0.190825 8.46468 0.188357L9.42379 0.740401C9.76394 0.935569 10.0093 1.25341 10.1152 1.63817C10.2156 2.02293 10.1654 2.41884 9.97026 2.75899C9.80855 3.04338 9.76394 3.29988 9.85874 3.46159C9.95353 3.6233 10.1933 3.7181 10.5223 3.7181C11.3364 3.7181 12 4.38167 12 5.19579V6.1772C12 6.99133 11.3364 7.6549 10.5223 7.6549C10.1933 7.6549 9.95353 7.74969 9.85874 7.91141C9.76394 8.07312 9.80297 8.32962 9.97026 8.61401C10.1654 8.95416 10.2212 9.35564 10.1152 9.73483C10.0149 10.1196 9.76952 10.4374 9.42379 10.6326L8.45911 11.1846C8.24721 11.3017 8.01859 11.3631 7.78439 11.3631ZM5.99442 9.29988C6.49071 9.29988 6.95353 9.61215 7.27138 10.1642L7.33271 10.2701C7.39963 10.3872 7.51115 10.4709 7.64498 10.5043C7.77881 10.5378 7.91264 10.5211 8.02416 10.4542L8.98885 9.89653C9.13383 9.81289 9.24535 9.67349 9.28996 9.5062C9.33457 9.33891 9.31227 9.16605 9.22862 9.02107C8.91078 8.4746 8.87175 7.91141 9.1171 7.48204C9.36245 7.05267 9.86989 6.80732 10.5056 6.80732C10.8625 6.80732 11.1468 6.52293 11.1468 6.16605V5.18464C11.1468 4.83334 10.8625 4.54338 10.5056 4.54338C9.86989 4.54338 9.36245 4.29802 9.1171 3.86865C8.87175 3.43929 8.91078 2.87609 9.22862 2.32962C9.31227 2.18464 9.33457 2.01178 9.28996 1.84449C9.24535 1.6772 9.13941 1.54338 8.99442 1.45416L8.02974 0.902111C7.78996 0.75713 7.47212 0.840773 7.32714 1.08613L7.2658 1.19207C6.94796 1.74412 6.48513 2.05639 5.98885 2.05639C5.49257 2.05639 5.02974 1.74412 4.7119 1.19207L4.65056 1.08055C4.51115 0.846349 4.19888 0.762706 3.95911 0.902111L2.99442 1.45973C2.84944 1.54338 2.73792 1.68278 2.69331 1.85007C2.6487 2.01735 2.671 2.19022 2.75465 2.3352C3.07249 2.88167 3.11152 3.44486 2.86617 3.87423C2.62082 4.3036 2.11338 4.54895 1.4777 4.54895C1.12082 4.54895 0.836431 4.83334 0.836431 5.19022V6.17163C0.836431 6.52293 1.12082 6.81289 1.4777 6.81289C2.11338 6.81289 2.62082 7.05825 2.86617 7.48761C3.11152 7.91698 3.07249 8.48018 2.75465 9.02665C2.671 9.17163 2.6487 9.34449 2.69331 9.51178C2.73792 9.67906 2.84387 9.81289 2.98885 9.90211L3.95353 10.4542C4.07063 10.5266 4.21004 10.5434 4.33829 10.5099C4.47212 10.4765 4.58364 10.3872 4.65613 10.2701L4.71747 10.1642C5.03532 9.61773 5.49814 9.29988 5.99442 9.29988Z" fill="#A4022D"/>
</svg>
