<svg width="86" height="104" viewBox="0 0 86 104" fill="none" xmlns="http://www.w3.org/2000/svg">
<path d="M18.7246 6.54196C20.8931 3.34964 23.8203 1.35222 27.6407 0.762146C27.7282 0.747394 27.8041 0.64118 27.8829 0.576271H31.8025C32.9903 0.87131 34.1928 1.09849 35.3572 1.46139C37.7655 2.1649 39.9492 3.4945 41.6904 5.31755C41.9641 5.66028 42.3062 5.94078 42.6944 6.14071C44.2441 7.08484 45.7326 8.12927 47.2969 9.05275C48.2221 9.59857 48.2483 10.6814 47.4662 11.4986C46.8245 12.0966 46.0887 12.5822 45.289 12.9355C44.2537 13.4687 43.1806 13.9233 42.0786 14.2956C38.699 15.1984 35.3251 14.6673 31.9543 14.2513C30.6117 14.0891 29.278 13.9563 28.0989 14.8414C25.2329 15.0627 22.9302 13.8943 21.0711 11.7966C19.7694 10.3126 19.0894 8.48922 18.7246 6.54196Z" fill="#383838"/>
<path d="M24.8593 112.715C21.7967 112.231 18.794 111.418 15.9024 110.29C12.2077 108.919 8.67813 107.131 5.38113 104.958C4.93167 104.044 4.8733 103.052 4.86747 102.061C4.84363 91.987 3.56897 81.9559 1.07339 72.2029C-1.30812 62.9977 0.349599 54.4357 5.28773 46.446C6.93739 43.7146 8.88024 41.1757 11.081 38.8753C11.4108 38.539 11.7172 38.1613 12.2075 38.0403C12.6132 38.061 12.7241 38.4121 12.8671 38.6924C13.8944 40.7252 15.666 41.8168 17.6885 42.5721C19.6293 43.2979 21.6402 43.8172 23.5606 44.5961C23.7029 44.7012 23.8058 44.852 23.8524 45.0239C23.7882 45.853 23.5168 46.6643 23.8349 47.5229C24.0509 48.113 23.5431 48.29 23.1024 48.3815C22.1369 48.5608 21.1851 48.8083 20.2539 49.122C15.4121 50.8686 12.082 55.6896 12.0091 60.8793C11.9341 63.4693 12.6471 66.0202 14.052 68.1874C14.2902 68.6 14.4654 69.0467 14.5715 69.5122C14.773 73.0704 15.3135 76.6006 16.1855 80.0539C16.9735 83.14 18.3656 85.9695 19.6089 88.8638C19.9253 89.6865 20.2878 90.4903 20.6946 91.2713C22.6442 95.6585 24.4391 100.102 25.2358 104.879C25.6035 107.085 25.7991 109.304 25.3817 111.546C25.2854 111.974 25.2679 112.432 24.8593 112.715Z" fill="#383838"/>
<path d="M60.6435 32.1455C64.0056 29.6435 67.7559 28.7083 71.9061 29.1951C75.7614 29.6347 78.9105 31.4344 81.6131 34.1252C84.4644 37.3175 85.8566 41.0911 85.9908 45.3662C85.7136 50.5176 83.694 54.772 79.646 57.982C79.1466 58.0124 78.6535 57.8565 78.2603 57.5438C77.867 57.2311 77.601 56.7834 77.5125 56.2856C77.2703 55.2795 76.8588 55.4801 76.2255 55.8519C74.8206 56.7094 73.258 57.2695 71.6326 57.4983C70.0071 57.727 68.3526 57.6196 66.7695 57.1825C61.5687 55.8312 57.7863 50.8746 57.7221 45.4517C57.6695 41.5041 59.1463 38.3206 62.0327 35.739C62.2154 35.622 62.3581 35.4511 62.4413 35.2493C60.842 34.2491 60.3487 33.3964 60.6435 32.1455Z" fill="#383838"/>
<path d="M17.8637 32.6441C16.5212 28.8322 14.1747 25.5041 12.7242 21.7453C11.7581 19.2404 11.3875 16.6677 11.9391 13.9976C12.3185 12.1743 13.3254 10.7227 14.5395 9.38319C15.774 8.20303 17.4113 7.61295 18.7246 6.54196C19.2033 6.58622 19.0982 6.96977 19.1653 7.27956C20.1022 11.6166 23.6132 14.6083 27.8742 14.7057C28.0522 15.0332 27.9326 15.3489 27.8275 15.6616C26.9695 18.1783 26.6601 20.7983 26.4266 23.433C26.3478 24.3004 26.3215 25.2238 25.3759 25.6989C24.0509 25.8434 23.5752 25.4569 23.4585 24.1351C23.4235 23.7693 23.4585 23.4005 23.3972 23.0347C23.1987 21.7984 21.8387 20.9399 20.5954 21.2644C19.5039 21.5595 19.034 22.5154 19.4543 23.8047C19.9708 25.3802 20.5546 26.9616 20.286 28.6404C20.0263 30.2749 19.5447 31.8504 17.8637 32.6441Z" fill="#383838"/>
<path d="M38.5154 88.6868C37.8791 92.4662 37.2166 96.2427 36.6154 100.028C35.9383 104.283 35.3138 108.546 34.6717 112.806C34.6338 113.06 34.6396 113.32 34.625 113.576L31.152 113.55C30.9827 113.146 31.1111 112.75 31.2074 112.37C32.585 106.894 31.9779 101.58 29.9466 96.3784C28.9047 93.7231 27.7577 91.0884 26.7187 88.4124C25.5513 85.2171 24.1942 82.0867 23.2632 78.8C23.0647 78.1008 22.7671 77.4163 22.8604 76.658C22.9568 76.4043 23.0647 76.1535 23.3945 76.3836C23.6206 76.568 23.8098 76.7943 23.952 77.0504C25.3616 79.2667 27.0853 81.2617 29.0681 82.9719C29.8611 83.688 30.7017 84.3485 31.5839 84.9486C33.5247 86.1878 35.5181 87.3089 37.7128 88.0495C38.0513 88.1616 38.4453 88.2295 38.5154 88.6868Z" fill="#383838"/>
<path d="M26.9609 88.2265C28.496 92.1771 30.4281 95.9801 31.4729 100.114C32.6082 104.61 32.5965 109.103 31.1665 113.55C29.0593 113.308 26.9317 113.216 24.8595 112.715C25.773 108.49 25.0405 104.401 23.8556 100.353C22.945 97.2547 21.6492 94.3043 20.438 91.3244C20.9721 88.4625 23.5462 87.3266 26.2371 87.7662C26.5494 87.8164 26.7303 88.0583 26.9609 88.2265Z" fill="#A4022D"/>
<path d="M25.2448 25.5749C26.167 25.0409 26.0386 24.0997 26.1203 23.2412C26.4122 20.3321 26.704 17.4289 27.8714 14.7057C29.0389 13.4223 30.5273 13.7763 31.9428 13.9238C33.9536 14.1333 35.9587 14.4225 37.987 14.4697C39.4463 14.5021 40.8559 14.1481 42.2948 14.0212C41.8249 16.296 41.5914 18.5796 42.07 20.8868C42.3264 21.9197 42.7399 22.906 43.2958 23.8106C43.8513 24.7572 44.2802 25.7741 44.5712 26.8348C44.9856 28.4752 44.4807 29.7527 42.8989 30.2779C41.6556 30.6909 41.4396 31.458 41.4163 32.588C41.3754 34.4173 41.6235 36.2583 41.2178 38.0757C41.1012 38.6887 40.8894 39.2792 40.5904 39.8253C39.9016 41.0055 39.2186 41.3005 37.8703 41.0055C35.9324 40.6042 34.1171 39.5716 32.0478 39.8253C32.0975 39.3444 32.4652 39.4772 32.6637 39.4624C29.319 37.6007 26.8733 34.8687 25.5512 31.1453C25.0438 29.6583 24.7356 28.1094 24.6348 26.5397C24.5969 26.0293 24.6698 25.6546 25.2448 25.5749Z" fill="#E8B88F"/>
<path d="M38.5152 88.6868C36.0228 87.7367 33.5538 86.7218 31.397 85.1079C31.575 84.4028 32.2521 84.4353 32.7366 84.2228C36.0276 82.7428 38.9486 80.5359 41.2849 77.7644C43.7758 75.0313 45.7352 71.8484 47.0607 68.3822C47.2416 67.916 47.3263 67.382 47.7961 67.0751C49.3079 68.4736 50.4549 70.1524 51.4851 71.9256C51.6077 72.141 51.7069 72.4449 51.9842 72.4685C52.2615 72.4921 52.3607 72.1557 52.4453 71.9374C53.8725 68.1697 56.6713 65.5321 59.6161 63.0036C60.7689 62.0123 62.0502 61.136 62.8265 59.7582C62.8904 59.6912 62.9731 59.6457 63.0634 59.6277C63.1536 59.6098 63.2472 59.6203 63.3314 59.6579C64.5134 60.2273 65.8297 60.425 67.0087 61.0091C67.3531 61.4842 67.1868 61.9946 67.0934 62.4843C66.2178 67.1253 64.064 71.1939 61.6591 75.1533C60.2874 77.4074 58.8544 79.6143 56.9428 81.4672C56.4607 81.9682 55.8639 82.3412 55.2051 82.5532C54.5464 82.7653 53.846 82.8098 53.1662 82.6827C51.7272 82.4776 50.3049 82.166 48.911 81.7504C48.1749 81.5218 47.3824 81.5657 46.6754 81.8743C45.7923 82.2169 44.9566 82.673 44.1888 83.2315C43.424 83.7714 42.8082 84.4997 42.3996 85.3475C41.991 86.1952 41.8032 87.1344 41.854 88.076C41.854 88.5097 41.9854 88.9612 41.6293 89.33C40.5582 89.3211 39.5834 88.793 38.5152 88.6868Z" fill="#E7AA70"/>
<path d="M41.6411 89.3211C41.4923 87.5833 41.5302 85.9134 42.6276 84.4028C43.9088 82.6326 45.7299 81.7652 47.7116 81.2577C48.3683 81.0925 49.2001 81.4672 49.9093 81.715C51.1555 82.1517 52.4571 82.2608 53.7384 82.4526C54.7832 82.6119 55.7054 82.2431 56.5168 81.4819C58.8895 79.2514 60.5473 76.4928 62.1816 73.7253C64.1225 70.4415 65.8152 67.0338 66.6441 63.2632C66.7987 62.5522 67.0293 61.8471 66.9738 61.1036C68.4331 60.8616 69.8924 60.6964 71.3254 61.3189C69.9327 70.9595 66.711 80.2373 61.8373 88.6425C61.5183 89.2588 61.2799 89.9144 61.1281 90.5927C60.6027 92.5282 59.5375 93.3897 57.5908 93.313C56.3962 93.2853 55.2022 93.3902 54.0302 93.6257C52.3491 93.9208 50.706 93.5608 49.0979 93.0976C46.414 92.2866 43.8906 91.0086 41.6411 89.3211Z" fill="#E8B88F"/>
<path d="M71.3251 61.3189C69.8658 61.2658 68.4066 61.4104 66.9736 61.1036C65.5406 60.7967 64.1893 60.2597 62.8293 59.7405C60.58 58.4716 58.6098 56.753 57.039 54.6894C52.5152 48.6441 53.0698 39.5627 58.3406 34.137C59.0469 33.4112 59.6744 32.5762 60.6433 32.1543C60.7922 33.3846 61.2095 34.4261 62.4966 34.8598C63.0803 35.0575 62.8614 35.3083 62.5666 35.6151C61.4605 36.7717 60.2639 37.8191 59.4818 39.2854C57.9565 42.0671 57.5719 45.3427 58.4107 48.408C59.8291 54.0138 65.2312 57.6693 70.7239 57.3094C72.8281 57.1655 74.8589 56.4699 76.6164 55.2913C77.3139 54.834 77.67 54.831 77.6758 55.7752C77.6758 57.0999 78.7323 57.4805 79.6458 57.9791C77.2505 59.8831 74.36 61.0433 71.3251 61.3189Z" fill="#383838"/>
<path d="M29.033 83.1577C26.815 81.6147 25.3002 79.4314 23.7797 77.2569C23.6221 76.95 23.3628 76.7088 23.0472 76.5754C22.5335 76.4485 22.5452 75.8998 22.2767 75.5752C21.6284 74.7785 20.8195 74.1308 19.9039 73.6752C17.7588 72.6337 15.8005 71.3591 14.3033 69.4532C13.8392 68.1491 12.9899 67.0515 12.4879 65.7534C9.91382 59.0943 13.5153 51.1401 20.2045 48.8152C21.1672 48.5082 22.1477 48.2618 23.1405 48.0776C23.5083 48.0009 23.8176 47.9419 23.5491 47.4698C23.0472 46.5847 23.3915 45.7674 23.7359 44.9502C24.0278 44.6787 24.3517 44.7672 24.6582 44.8794C26.9755 45.7409 29.2753 46.626 31.2307 48.228C31.8088 48.6704 32.2948 49.2239 32.6608 49.8567L33.1277 51.1401C32.8184 51.7095 32.544 51.2109 32.3485 51.0663C30.3532 49.568 27.9905 48.6497 25.5162 48.411C24.3809 48.29 24.1649 48.3874 23.8468 49.4554C23.1877 51.5601 22.8732 53.7596 22.9158 55.9669C23.0472 60.1181 24.9121 63.1895 28.5106 65.1426C30.5361 66.2431 32.5119 67.3731 34.1317 69.0667C35.0104 70.0473 35.7851 71.1182 36.4432 72.2619C37.1378 73.3801 37.7331 74.5632 38.6904 75.5074C38.9609 75.761 39.1293 76.1066 39.1632 76.478C39.1164 76.8468 38.9289 77.1824 38.6408 77.4133C36.2129 79.9134 33.2844 81.8599 30.0516 83.1223C29.7247 83.258 29.3833 83.4321 29.033 83.1577Z" fill="#383838"/>
<path d="M14.2915 69.4532C14.6417 69.1581 14.7234 69.5564 14.8431 69.701C16.1117 71.1726 17.685 72.344 19.4514 73.1323C20.3013 73.5463 21.0933 74.0721 21.8067 74.696C22.405 75.1753 22.839 75.8329 23.0471 76.5754C23.6804 79.8031 24.9149 82.8332 26.0852 85.8839C26.3771 86.6628 26.6689 87.4446 26.9608 88.2265C24.5034 87.5184 21.6228 88.2088 20.8086 90.8022C20.7118 90.9942 20.5868 91.1702 20.4379 91.3244C17.8112 85.9931 15.4618 80.5761 14.7555 74.575C14.5571 72.8609 14.3557 71.1673 14.2915 69.4532Z" fill="#A4022D"/>
<path d="M12.3096 38.0757C12.222 36.6006 15.1259 33.9688 16.4947 34.2904C16.9821 34.4261 17.128 34.8569 17.3002 35.2611C17.9496 36.7984 19.1301 38.0442 20.6215 38.7661C21.5963 39.2589 22.5711 39.7516 23.54 40.2413C23.9515 40.4538 24.4331 40.616 24.5002 41.1943C24.4431 41.4473 24.2928 41.6689 24.0799 41.8139C23.7725 42.046 23.5503 42.375 23.4483 42.749C23.3463 43.1229 23.3704 43.5206 23.5167 43.8792C23.6159 44.1506 23.7472 44.4338 23.5167 44.7082C21.2485 44.117 19.0201 43.3799 16.8449 42.5013C14.7815 41.6398 13.0859 40.321 12.3096 38.0757Z" fill="#A4022D"/>
<path d="M23.514 44.7289C22.8398 42.6046 22.8719 42.4748 24.407 41.1648C24.6989 40.9612 24.9732 41.091 25.2271 41.2238C26.8411 42.0529 28.4171 42.9734 30.0515 43.77C30.3382 43.9335 30.5653 44.1859 30.6994 44.4899C32.325 45.912 32.4505 47.8917 32.6577 49.8478C31.0087 48.293 29.2284 46.9387 27.1125 46.1185C26.0035 45.6907 24.947 45.1006 23.7445 44.9384L23.514 44.7289Z" fill="#A4022D"/>
<path d="M39.058 76.5754C36.9771 74.2151 35.8476 71.1703 33.6062 68.9339C32.2463 67.6072 30.6782 66.5175 28.9657 65.7091C23.6774 63.1246 22.0022 58.4335 22.7989 52.9251C22.9886 51.6121 23.3534 50.3553 23.6394 49.0748C23.835 48.2133 24.2903 47.9389 25.0987 48.0392C27.918 48.3785 30.5651 49.1486 32.754 51.0988C32.8678 51.1991 32.9787 51.2994 33.1159 51.1312C35.0934 53.2301 36.5463 55.7761 37.3536 58.5574C37.7096 59.7375 38.699 60.2893 39.6884 60.8646C41.8744 62.1421 44.0954 63.3813 45.8348 65.2902C45.9099 65.4167 45.9496 65.5615 45.9496 65.7091C45.9496 65.8567 45.9099 66.0015 45.8348 66.1281C44.3172 69.881 42.4114 73.3949 39.6183 76.3541C39.5403 76.4304 39.4518 76.495 39.3557 76.5459C39.2635 76.5926 39.1574 76.6031 39.058 76.5754Z" fill="#383838"/>
<path d="M30.7025 44.4899C28.6391 43.3097 26.5553 42.1768 24.4072 41.1648C23.5317 40.3682 22.4401 39.967 21.4099 39.486C19.294 38.5006 17.6158 37.1582 16.8512 34.8362C16.7581 34.6385 16.6383 34.4548 16.4951 34.2904C16.9037 33.7003 17.5954 33.3522 17.8639 32.6441C19.939 30.629 20.6511 28.2686 19.6675 25.4658C19.4749 24.9141 19.3319 24.3446 19.1218 23.8018C18.7686 22.8842 18.8854 22.0758 19.6121 21.3972C20.3388 20.7186 21.2611 20.7511 22.1512 21.1021C23.0414 21.4532 23.6834 22.061 23.733 23.1143C23.733 23.4094 23.733 23.7044 23.733 23.9994C23.733 25.2858 23.9257 25.4746 25.2419 25.5956C24.4364 26.5604 25.0084 27.6343 25.1748 28.5696C25.9686 33.0483 28.3064 36.5179 32.1792 38.896C32.4273 39.0464 32.655 39.2264 32.8884 39.3975C32.9118 39.4152 32.9205 39.4565 32.9672 39.5421C32.7279 39.8371 32.2522 39.5421 32.0362 39.8637C30.7842 40.56 30.2384 41.929 30.5274 43.6756C30.5886 43.9264 30.6353 44.2067 30.7025 44.4899Z" fill="#E9A77C"/>
<path d="M39.2593 76.5223C41.5941 73.7607 43.6225 70.8044 45.0321 67.4439C45.324 66.7388 45.5779 66.016 45.8464 65.299C46.7219 65.6413 47.2006 66.4202 47.8076 67.0692C46.4476 71.126 44.4396 74.7963 41.4803 77.9001C40.3858 78.024 39.7496 77.3956 39.2593 76.5223Z" fill="#DAE0FC"/>
<path d="M67.6273 41.4067C66.3665 40.9966 65.0385 40.7459 64.1572 39.5745C63.1736 38.2734 63.194 36.7835 63.3254 35.2847C63.3546 34.9365 63.8157 34.7713 64.1221 34.5884C68.0738 32.2281 73.4614 32.6087 77.127 35.4735C78.4705 36.4742 79.5866 37.7538 80.4006 39.2265C81.2146 40.6992 81.7075 42.3308 81.8463 44.0119C82.2403 47.9301 80.9036 51.1519 78.2974 53.9548C78.1022 54.2063 77.8365 54.3924 77.535 54.4888C77.2335 54.5851 76.9102 54.5872 76.6076 54.4947C74.0159 53.9548 72.8835 52.6418 72.8631 49.9422C72.8631 49.5233 73.0353 49.0571 72.6238 48.7031C72.5479 48.2251 72.9156 47.9861 73.1579 47.6763C74.2027 46.2955 74.2873 44.2952 73.3534 42.9409C72.8638 42.2053 72.157 41.6446 71.3337 41.3389C70.5104 41.0332 69.6126 40.9981 68.7684 41.2386C68.3978 41.333 68.0475 41.6044 67.6273 41.4067Z" fill="#383838"/>
<path d="M67.6273 41.4067C68.2568 41.0141 68.9746 40.7892 69.7134 40.753C70.4522 40.7167 71.1881 40.8703 71.8524 41.1994C72.5166 41.5285 73.0875 42.0224 73.5118 42.635C73.936 43.2475 74.1999 43.9588 74.2786 44.7023C74.4508 46.3368 73.762 47.6085 72.6238 48.6883C69.3988 50.8126 66.3285 48.6883 65.7828 46.328C65.3071 44.2745 65.9929 42.6577 67.6273 41.4067Z" fill="#DAE0FC"/>
<path d="M39.2592 76.5223C39.9684 77.0357 40.593 77.6818 41.4802 77.8942C39.9334 80.0333 37.8233 81.5114 35.6665 82.9424C34.3269 83.8275 32.8326 84.3969 31.4084 85.108C30.5708 84.5179 29.6573 84.0045 29.0327 83.1577C32.8832 81.881 36.3383 79.6124 39.0578 76.5754C39.124 76.5557 39.1911 76.538 39.2592 76.5223Z" fill="#F5F5F5"/>
</svg>
