<svg width="18" height="13" viewBox="0 0 18 13" fill="none" xmlns="http://www.w3.org/2000/svg">
<path d="M12.8447 7.11722C13.9004 7.83384 14.6401 8.80474 14.6401 10.0993V12.411H17.7224V10.0993C17.7224 8.41946 14.9715 7.42544 12.8447 7.11722Z" fill="#383838"/>
<path d="M11.558 6.24657C13.261 6.24657 14.6403 4.86726 14.6403 3.16433C14.6403 1.46139 13.261 0.0820923 11.558 0.0820923C11.1959 0.0820923 10.8568 0.159148 10.5332 0.267026C11.1728 1.0607 11.558 2.07014 11.558 3.16433C11.558 4.25852 11.1728 5.26796 10.5332 6.06163C10.8568 6.16951 11.1959 6.24657 11.558 6.24657Z" fill="#383838"/>
<path d="M6.93478 6.24657C8.63771 6.24657 10.017 4.86726 10.017 3.16433C10.017 1.46139 8.63771 0.0820923 6.93478 0.0820923C5.23184 0.0820923 3.85254 1.46139 3.85254 3.16433C3.85254 4.86726 5.23184 6.24657 6.93478 6.24657ZM6.93478 1.62321C7.78239 1.62321 8.47589 2.31671 8.47589 3.16433C8.47589 4.01194 7.78239 4.70545 6.93478 4.70545C6.08716 4.70545 5.39366 4.01194 5.39366 3.16433C5.39366 2.31671 6.08716 1.62321 6.93478 1.62321Z" fill="#383838"/>
<path d="M6.93498 7.0173C4.87759 7.0173 0.770508 8.04985 0.770508 10.0995V12.4112H13.0995V10.0995C13.0995 8.04985 8.99237 7.0173 6.93498 7.0173ZM11.5583 10.8701H2.31163V10.1072C2.46574 9.55244 4.85447 8.55842 6.93498 8.55842C9.01549 8.55842 11.4042 9.55244 11.5583 10.0995V10.8701Z" fill="#383838"/>
</svg>
