<svg width="17" height="19" viewBox="0 0 17 19" fill="none" xmlns="http://www.w3.org/2000/svg">
<path d="M16.3517 4.77811C16.3342 4.77811 16.3081 4.77811 16.2819 4.77811C11.6694 4.31599 7.0657 4.1416 2.50553 4.60372L0.726814 4.77811C0.360607 4.81298 0.0379963 4.55141 0.00311945 4.1852C-0.0317574 3.81899 0.229819 3.5051 0.587306 3.47023L2.36602 3.29584C7.00467 2.825 11.7043 3.00811 16.4127 3.47023C16.7702 3.5051 17.0318 3.82771 16.9969 4.1852C16.9707 4.52525 16.683 4.77811 16.3517 4.77811Z" fill="#A4022D"/>
<path d="M5.45342 3.89749C5.41854 3.89749 5.38366 3.89749 5.34007 3.88877C4.9913 3.82773 4.74716 3.48768 4.80819 3.13891L5.00002 1.9967C5.13952 1.15965 5.33135 0 7.36289 0H9.64732C11.6876 0 11.8794 1.20325 12.0102 2.00542L12.202 3.13891C12.2631 3.4964 12.0189 3.83645 11.6702 3.88877C11.3127 3.9498 10.9726 3.70566 10.9203 3.35689L10.7285 2.2234C10.6064 1.46483 10.5803 1.3166 9.65604 1.3166H7.37161C6.44741 1.3166 6.42997 1.43867 6.29918 2.21468L6.09864 3.34818C6.04632 3.67079 5.76731 3.89749 5.45342 3.89749Z" fill="#A4022D"/>
<path d="M11.3041 18.7464H5.70639C2.66338 18.7464 2.54131 17.0636 2.4454 15.7034L1.87865 6.9231C1.8525 6.56562 2.13151 6.25173 2.489 6.22558C2.8552 6.20814 3.16038 6.47843 3.18653 6.83592L3.75328 15.6162C3.84919 16.9415 3.88407 17.4385 5.70639 17.4385H11.3041C13.1352 17.4385 13.17 16.9415 13.2572 15.6162L13.824 6.83592C13.8501 6.47843 14.164 6.20814 14.5215 6.22558C14.879 6.25173 15.158 6.5569 15.1319 6.9231L14.5651 15.7034C14.4692 17.0636 14.3471 18.7464 11.3041 18.7464Z" fill="#A4022D"/>
<path d="M9.95199 13.9507H7.04849C6.69098 13.9507 6.39453 13.6543 6.39453 13.2968C6.39453 12.9393 6.69098 12.6429 7.04849 12.6429H9.95199C10.3095 12.6429 10.6059 12.9393 10.6059 13.2968C10.6059 13.6543 10.3095 13.9507 9.95199 13.9507Z" fill="#A4022D"/>
<path d="M10.6844 10.463H6.32484C5.96735 10.463 5.6709 10.1666 5.6709 9.80911C5.6709 9.45162 5.96735 9.15517 6.32484 9.15517H10.6844C11.0419 9.15517 11.3384 9.45162 11.3384 9.80911C11.3384 10.1666 11.0419 10.463 10.6844 10.463Z" fill="#A4022D"/>
</svg>
