<svg width="32" height="32" viewBox="0 0 32 32" fill="none" xmlns="http://www.w3.org/2000/svg">
<path d="M16.9814 28.9665H2.89888C2.40244 28.9665 2 28.5641 2 28.0676V2.89888C2 2.40244 2.40244 2 2.89888 2H28.0676C28.5641 2 28.9665 2.40244 28.9665 2.89888V16.9814" stroke="#F2F2F2" stroke-width="2.85" stroke-linecap="round" stroke-linejoin="round"/>
<path d="M21.4766 25.97H25.971M25.971 25.97H30.4654M25.971 25.97V21.4756M25.971 25.97V30.4644" stroke="#F2F2F2" stroke-width="2.85" stroke-linecap="round" stroke-linejoin="round"/>
<path d="M12.3331 10.2594C11.7339 9.91698 10.9883 10.3497 10.9883 11.0399V19.9271C10.9883 20.6173 11.7339 21.05 12.3331 20.7075L20.1094 16.2639C20.7133 15.9188 20.7133 15.0481 20.1094 14.7031L12.3331 10.2594Z" stroke="#F2F2F2" stroke-width="2.85" stroke-linecap="round" stroke-linejoin="round"/>
</svg>
