<svg width="92" height="95" viewBox="0 0 92 95" fill="none" xmlns="http://www.w3.org/2000/svg">
<path d="M24.2199 21.8097C24.2406 18.336 24.9432 15.012 26.5764 11.9368C29.9718 5.55379 35.1961 1.6332 42.3509 0.3271C42.9406 0.218834 43.5764 0.3271 44.1246 0H47.8102C48.9412 0.352438 50.1345 0.354742 51.2793 0.691056C60.2515 3.26178 65.5611 9.17261 67.4454 18.26C67.6758 19.4302 67.6758 20.628 67.7149 21.8166C68.0674 22.4824 67.9453 23.1987 67.8739 23.8898C66.9179 33.5646 59.6756 41.597 50.1667 43.3661C40.1073 45.2365 30.3565 40.3438 25.9452 30.8695C24.7536 28.3708 24.1036 25.6484 24.0379 22.8809C24.0218 22.5077 23.9665 22.1276 24.2199 21.8097Z" fill="#EBEBEB"/>
<path d="M24.2198 21.8097C24.2636 26.7784 25.7655 31.2542 28.8476 35.1563C32.372 39.6136 36.9468 42.3525 42.5881 43.2186C48.9136 44.1815 54.624 42.675 59.6042 38.6807C64.0108 35.1471 66.6046 30.5147 67.4799 24.9218C67.6435 23.8875 67.6366 22.8486 67.7103 21.8143C68.5303 21.6439 69.3596 21.7406 70.1843 21.7383C73.7985 21.7383 77.415 21.7061 81.0292 21.7383C85.4428 21.7798 88.8105 23.6387 90.8514 27.6307C91.8397 29.5611 92.0792 31.6227 91.8235 33.7857C91.4388 37.0636 91.1601 40.3554 90.8284 43.6402C90.423 47.656 90.0145 51.671 89.6029 55.6853C89.2712 58.9701 88.9533 62.2572 88.6216 65.5421C88.2193 69.5563 87.8108 73.5714 87.3962 77.5872C87.1382 80.121 86.9355 82.6434 86.6038 85.1565C86.2617 87.6377 85.035 89.9119 83.1494 91.5605C81.2638 93.2091 78.8462 94.1211 76.3416 94.1287C67.3049 94.1495 58.2682 94.1287 49.2314 94.1287C38.1746 94.1287 27.1177 94.1287 16.0608 94.1287C9.96796 94.1287 5.5475 89.8557 5.13287 83.7905C4.83572 79.7709 4.32434 75.7651 3.91431 71.75C3.58721 68.5251 3.26318 65.3002 2.94222 62.0753C2.53066 57.9996 2.11833 53.9239 1.70523 49.8482C1.31364 45.9552 0.929716 42.0607 0.553474 38.1647C0.408352 36.7043 0.323122 35.2346 0.113502 33.788C-0.754925 27.7759 3.45361 22.305 9.53259 21.8696C14.4184 21.5195 19.3226 21.69 24.2198 21.8097Z" fill="#A4022D"/>
<path d="M63.219 21.7086C63.2588 25.9045 61.7543 29.9685 58.992 33.1271C58.2756 33.9633 57.3957 33.9817 56.5526 33.1041C54.5392 30.9374 51.9077 29.4431 49.0155 28.8241C44.1527 27.7968 39.9004 29.096 36.1803 32.3117C36.1105 32.3715 36.0451 32.4361 35.9845 32.5052C34.4181 34.3272 33.5842 34.0923 32.1975 32.2264C29.5945 28.7251 28.3322 24.7769 28.7261 20.4485C29.2536 14.7658 31.9003 10.2762 36.7631 7.14111C39.6262 5.31205 42.9689 4.37651 46.3656 4.45363C49.7622 4.53075 53.059 5.61704 55.8362 7.57417C60.1968 10.6402 62.5371 14.9063 63.2075 20.1376C63.2439 20.6605 63.2478 21.1852 63.219 21.7086Z" fill="#A4022D"/>
<path d="M45.7903 56.2679C35.684 56.2679 25.5777 56.2679 15.4714 56.2679C13.2969 56.2679 11.8272 55.1646 11.1823 53.1029C10.4175 50.6566 12.1889 47.9476 14.7251 47.5952C15.6343 47.4822 16.5502 47.4321 17.4663 47.4455C36.7283 47.4455 55.9903 47.4455 75.2523 47.4455C76.7658 47.4455 78.2469 47.639 79.3411 48.9036C80.5067 50.2673 80.919 51.8014 80.2256 53.4945C79.5162 55.229 78.2262 56.2587 76.2912 56.2587C66.125 56.271 55.9581 56.2741 45.7903 56.2679Z" fill="#EBEBEB"/>
<path d="M45.8171 62.5107H73.4801C76.0876 62.5107 77.9627 64.3535 77.9604 66.922C77.9604 69.4006 75.9909 71.3332 73.4317 71.3332H18.115C15.8621 71.3332 13.8719 69.7023 13.6093 67.6683C13.3029 65.2842 14.6136 63.2916 16.8895 62.6144C17.2757 62.5237 17.6729 62.4896 18.0689 62.513C27.3198 62.5084 36.5692 62.5077 45.8171 62.5107Z" fill="#EBEBEB"/>
<path d="M45.7765 86.2393C37.1406 86.2393 28.5001 86.1979 19.8689 86.2693C17.7657 86.2877 15.7502 84.7213 15.3609 82.6343C14.9554 80.4667 16.5564 77.9444 18.7217 77.5988C19.5381 77.4658 20.3639 77.3987 21.1911 77.3984C37.8225 77.4107 54.4524 77.4146 71.0807 77.41C73.0157 77.41 74.6512 77.9674 75.7039 79.7826C77.2633 82.4731 75.2639 86.2071 72.1564 86.2163C63.3662 86.244 54.576 86.2163 45.7858 86.2163L45.7765 86.2393Z" fill="#EBEBEB"/>
<path d="M53.6841 27.3728C51.7077 26.5297 49.6898 25.8616 47.5245 25.6866C42.8484 25.3042 38.6813 26.5734 35.0509 29.5288C34.3829 30.0748 34.1457 30.031 33.6988 29.2985C28.4721 20.6764 33.3671 9.49975 43.2399 7.60165C44.0116 7.45422 44.8017 7.28376 45.608 7.38512C46.3851 7.56066 47.1171 7.89645 47.7572 8.37102C51.7653 11.1237 54.154 14.9107 54.7737 19.7205C55.1046 22.0041 54.9052 24.3332 54.1909 26.5274C54.0826 26.8476 54.002 27.1816 53.6841 27.3728Z" fill="#F2F2F2"/>
<path d="M53.6848 27.3724C54.5383 25.0461 54.8487 22.5555 54.5924 20.091C54.2955 16.852 52.9692 13.7933 50.8077 11.3629C49.3403 9.72226 47.5764 8.37334 45.6086 7.38704C52.4916 7.01618 59.1142 12.4548 60.1392 19.2502C60.7013 22.975 60.0517 26.421 58.0292 29.616C57.739 30.0767 57.5685 30.1228 57.1654 29.7473C56.1311 28.7752 54.8849 28.1026 53.6848 27.3724Z" fill="#F2F2F2"/>
<path d="M43.1243 13.0449C43.509 13.0449 43.9743 13.372 44.2208 13.9479C45.2505 16.362 46.2755 18.7853 47.2568 21.2155C47.3321 21.3884 47.372 21.5746 47.3742 21.7631C47.3764 21.9517 47.3409 22.1388 47.2698 22.3134C47.1986 22.488 47.0933 22.6466 46.9599 22.78C46.8266 22.9133 46.668 23.0186 46.4933 23.0897C46.3187 23.1608 46.1316 23.1963 45.9431 23.1941C45.7545 23.1918 45.5683 23.1519 45.3954 23.0766C45.2226 23.0014 45.0665 22.8923 44.9363 22.7559C44.8062 22.6194 44.7047 22.4583 44.6377 22.282C43.6011 19.9025 42.5784 17.5161 41.6063 15.1089C41.1871 14.0677 41.839 13.0772 43.1243 13.0449Z" fill="#676767"/>
</svg>
