<svg width="40" height="40" viewBox="0 0 40 40" fill="none" xmlns="http://www.w3.org/2000/svg">
<path d="M39.4863 17.2749C39.2039 15.0792 38.5474 12.9493 37.5459 10.9795C35.3855 6.70275 31.7946 3.33719 27.4104 1.48007C24.5648 0.258504 21.5829 -0.110467 18.503 0.0427499C16.8575 0.124783 15.2304 0.429777 13.6654 0.949543C10.051 2.11748 6.85015 4.32006 4.45155 7.2898C2.47707 9.70791 1.17142 12.4596 0.442736 15.5031C-0.0279171 17.4688 -0.0361741 19.4638 0.0298825 21.4618C0.0990355 23.5964 0.617167 25.631 1.40056 27.5874C2.711 30.8345 4.84129 33.6781 7.57909 35.8348C10.3169 37.9915 13.5666 39.3859 17.0044 39.8791C17.4172 39.9385 17.8466 39.9 18.2605 39.9927H21.1948C21.2207 39.9737 21.2502 39.9603 21.2815 39.9535C21.3128 39.9467 21.3452 39.9465 21.3765 39.9531C22.8473 39.9635 24.2665 39.6404 25.6537 39.2047C29.3693 38.0301 32.5019 35.9455 35.0079 32.9322C37.4169 30.0728 38.9629 26.5755 39.4626 22.8554C39.5214 22.4385 39.4853 22.0049 39.5761 21.5869V18.6237C39.5111 18.1765 39.541 17.719 39.4863 17.2749ZM29.3208 24.3313C29.0669 25.8353 28.0575 26.5284 26.7405 26.8786C25.8198 27.1246 24.8538 27.109 23.9063 27.183C22.5469 27.2872 21.1825 27.3049 20.1679 27.3195C17.8641 27.3359 15.5613 27.2173 13.2711 26.9641C12.4211 26.8648 11.6287 26.4801 11.0211 25.8718C10.505 25.3725 10.3419 24.7346 10.2356 24.0561C9.78249 21.2423 9.81042 18.3709 10.3182 15.5666C10.5773 14.1481 11.6084 13.4977 12.8686 13.1777C13.8553 12.9275 14.8833 12.9307 15.8959 12.865C19.364 12.634 22.8454 12.7083 26.3008 13.087C27.1646 13.1789 27.9718 13.5644 28.5901 14.1804C29.0917 14.6671 29.2692 15.2873 29.3714 15.9523C29.8071 18.7294 29.79 21.5597 29.3208 24.3313Z" fill="#A4022D"/>
<path d="M17.4431 23.8549L23.6153 20.0266L17.4431 16.2024V23.8549Z" fill="#A4022D"/>
</svg>
