<svg width="52" height="77" viewBox="0 0 52 77" fill="none" xmlns="http://www.w3.org/2000/svg">
<path d="M23.1905 22.8068L22.5485 33.5637C22.5467 33.5919 22.5523 33.6201 22.5647 33.6455C22.5771 33.6709 22.596 33.6927 22.6193 33.7089C22.6427 33.725 22.6699 33.7348 22.6983 33.7375C22.7266 33.7401 22.7552 33.7355 22.7812 33.724L36.2776 27.8661L43.5015 24.7314L48.8637 22.4102C48.8902 22.3989 48.9191 22.3945 48.9478 22.3976C48.9765 22.4006 49.0039 22.411 49.0273 22.4277C49.0508 22.4444 49.0694 22.4668 49.0815 22.4928C49.0936 22.5188 49.0988 22.5474 49.0964 22.5759L48.4954 29.6385C48.3978 30.7873 47.9891 31.8885 47.3128 32.8259C46.6364 33.7633 45.7174 34.502 44.6528 34.964L42.9444 35.7056C42.9169 35.717 42.8932 35.7357 42.8758 35.7597C42.8584 35.7837 42.848 35.8119 42.8458 35.8414L41.9067 51.572C41.853 52.4872 41.5893 53.3781 41.1357 54.1768C40.682 54.9754 40.0505 55.6607 39.2893 56.1803L34.6814 59.3164C34.6558 59.3341 34.6258 59.3443 34.5946 59.3458C34.5635 59.3473 34.5325 59.34 34.5053 59.3248C34.4782 59.3096 34.4559 59.2872 34.441 59.2599C34.4261 59.2327 34.4193 59.2019 34.4213 59.1711L35.6137 39.1486C35.6153 39.1204 35.6096 39.0923 35.5972 39.0669C35.5848 39.0415 35.566 39.0196 35.5427 39.0034C35.5194 38.9872 35.4923 38.9772 35.464 38.9744C35.4357 38.9715 35.4071 38.9758 35.381 38.987L21.9653 44.8041C21.9379 44.8155 21.9141 44.8343 21.8967 44.8582C21.8793 44.8822 21.869 44.9105 21.8667 44.9399L20.6169 65.9457C20.5599 66.9002 20.2836 67.8291 19.8091 68.6613C19.3345 69.4935 18.6743 70.2069 17.879 70.7469L8.73446 76.9702C8.70888 76.9879 8.67879 76.9981 8.64764 76.9996C8.61649 77.0011 8.58555 76.9938 8.55838 76.9786C8.5312 76.9634 8.5089 76.9409 8.49404 76.9137C8.47918 76.8865 8.47235 76.8557 8.47436 76.8249L10.0788 49.9639L10.7359 38.9517L11.3834 28.0943C11.385 28.0661 11.3793 28.0379 11.3669 28.0125C11.3545 27.9871 11.3357 27.9653 11.3124 27.9491C11.2891 27.9329 11.262 27.9229 11.2337 27.92C11.2054 27.9171 11.1768 27.9215 11.1506 27.9326L0.233317 32.6687C0.203464 32.682 0.170285 32.6863 0.137975 32.681C0.105664 32.6757 0.0756724 32.6609 0.0517905 32.6387C0.0279086 32.6165 0.0112089 32.5877 0.00380223 32.556C-0.00360442 32.5244 -0.00138543 32.4913 0.0101787 32.4609L2.72753 24.4625C3.18065 23.1301 3.90952 21.9065 4.86737 20.8701C5.82521 19.8337 6.99088 19.0074 8.28955 18.4443L12.0555 16.8145L23.8517 11.6968L37.6027 5.72619L44.828 2.59148L50.7679 0.013635C50.7944 0.00227888 50.8233 -0.00208033 50.852 0.000981964C50.8807 0.00404426 50.9081 0.0144237 50.9315 0.0311092C50.955 0.0477947 50.9736 0.0702175 50.9857 0.0961935C50.9978 0.12217 51.003 0.150813 51.0006 0.179334L50.6187 4.66952C50.4546 6.59698 49.769 8.44472 48.6341 10.0175C47.4991 11.5903 45.9571 12.8298 44.1709 13.6051L36.9457 16.7398L23.2891 22.6656C23.2608 22.6774 23.2365 22.697 23.2191 22.722C23.2016 22.747 23.1917 22.7764 23.1905 22.8068Z" fill="#A4022D"/>
</svg>
